<svg xmlns="http://www.w3.org/2000/svg" height="24px" viewBox="0 -960 960 960" width="24px" fill="#e3e3e3"><path d="M189-160q-60 0-102.5-43T42-307q0-9 1-18t3-18l84-336q14-54 57-87.5t98-33.5h390q55 0 98 33.5t57 87.5l84 336q2 9 3.5 18.5T919-306q0 61-43.5 103.5T771-160q-42 0-78-22t-54-60l-28-58q-5-10-15-15t-21-5H385q-11 0-21 5t-15 15l-28 58q-18 38-54 60t-78 22Zm3-80q19 0 34.5-10t23.5-27l28-57q15-31 44-48.5t63-17.5h190q34 0 63 18t45 48l28 57q8 17 23.5 27t34.5 10q28 0 48-18.5t21-46.5q0 1-2-19l-84-335q-7-27-28-44t-49-17H285q-28 0-49.5 17T208-659l-84 335q-2 6-2 18 0 28 20.5 47t49.5 19Zm376.5-291.5Q580-543 580-560t-11.5-28.5Q557-600 540-600t-28.5 11.5Q500-577 500-560t11.5 28.5Q523-520 540-520t28.5-11.5Zm80-80Q660-623 660-640t-11.5-28.5Q637-680 620-680t-28.5 11.5Q580-657 580-640t11.5 28.5Q603-600 620-600t28.5-11.5Zm0 160Q660-463 660-480t-11.5-28.5Q637-520 620-520t-28.5 11.5Q580-497 580-480t11.5 28.5Q603-440 620-440t28.5-11.5Zm80-80Q740-543 740-560t-11.5-28.5Q717-600 700-600t-28.5 11.5Q660-577 660-560t11.5 28.5Q683-520 700-520t28.5-11.5Zm-367 63Q370-477 370-490v-40h40q13 0 21.5-8.5T440-560q0-13-8.5-21.5T410-590h-40v-40q0-13-8.5-21.5T340-660q-13 0-21.5 8.5T310-630v40h-40q-13 0-21.5 8.5T240-560q0 13 8.5 21.5T270-530h40v40q0 13 8.5 21.5T340-460q13 0 21.5-8.5ZM480-480Z"/></svg>