<svg id="svg" version="1.1" xmlns="http://www.w3.org/2000/svg" style="display: block;" viewBox="0 0 512 512"><path d="M0 0 C168.96 0 337.92 0 512 0 C512 168.96 512 337.92 512 512 C343.04 512 174.08 512 0 512 C0 343.04 0 174.08 0 0 Z " transform="translate(0,0)" style="fill: #F0B776;"/><path d="M0 0 C0.87253418 0.22042969 1.74506836 0.44085938 2.64404297 0.66796875 C44.87312471 11.72048244 80.55660177 38.51886843 103.20458984 75.99316406 C112.65341177 92.34614377 118.77855945 109.64367026 123 128 C123.16516113 128.67788574 123.33032227 129.35577148 123.50048828 130.05419922 C132.66158091 168.33752425 122.56795563 213.17358689 102.328125 246.484375 C97.93007887 253.50595126 93.31840347 260.38766718 87.9453125 266.70703125 C86.54261816 268.36040791 85.21158323 270.07551948 83.9296875 271.82421875 C78.58295372 278.6944842 78.58295372 278.6944842 73.76171875 279.625 C70.77309826 279.625 67.95222124 279.44957684 65 279 C65 278.34 65 277.68 65 277 C66.96147874 275.61061923 68.96166576 274.2739589 71 273 C70.360625 273.33 69.72125 273.66 69.0625 274 C67 275 67 275 66 275 C67.08952144 262.92319195 75.41427945 252.98176225 83 244 C84.00945402 242.67380984 85.01268258 241.34275169 86 240 C77.12269808 246.5757792 69.98224593 253.21862933 63.875 262.4375 C63.4423584 263.08799316 63.0097168 263.73848633 62.56396484 264.40869141 C60.73061756 267.20554968 59.02185102 269.95759659 57.48828125 272.93359375 C56.15222009 275.44121606 55.18460691 277.17564539 53 279 C48.62912863 280.02319318 44.47402348 280.16595043 40 280 C40.50789062 279.11441406 41.01578125 278.22882813 41.5390625 277.31640625 C49.13606823 263.76328875 55.45696628 249.11515547 56.3125 233.4375 C56.682726 228.6043679 57.9961886 225.80278428 60.72265625 221.8671875 C65.93649767 214.24573123 65.8350126 205.9424024 65 197 C64.18724824 193.61353432 62.78483936 190.97793952 61 188 C60.05060547 186.32357422 60.05060547 186.32357422 59.08203125 184.61328125 C52.6469759 173.42753351 45.34908112 162.84421799 37 153 C38.34385419 150.08724428 39.90211114 147.7829338 41.9375 145.3125 C47.91951712 137.35597846 49.25512091 128.83775725 48 119 C45.47229216 110.92256917 40.29348428 104.41372276 32.921875 100.26953125 C29.30504667 97.46020336 28.57410003 94.86103948 27.6875 90.5625 C27.45450195 89.57926758 27.45450195 89.57926758 27.21679688 88.57617188 C26.78385484 86.72362593 26.39081616 84.86188829 26 83 C25.63841797 81.65228516 25.63841797 81.65228516 25.26953125 80.27734375 C24.93803639 77.47645242 25.68710763 76.44632464 27 74 C27.66371584 68.89093154 27.63768023 64.40821051 25.5 59.6875 C20.606048 54.4265016 16.87343658 50.66065473 9.375 50.375 C5.49763016 50.56647505 4.21400313 50.85150803 0.9375 53.125 C-2.44900536 55.28659916 -2.98893649 55.14470602 -6.75 54.375 C-8.5 53.91666667 -10.25 53.45833333 -12 53 C-19.22625529 51.24902591 -26.13385375 50.61475941 -33.5625 50.625 C-35.12436035 50.62415405 -35.12436035 50.62415405 -36.71777344 50.62329102 C-46.71994744 50.763961 -55.80979191 52.66042633 -65.29296875 55.74609375 C-67 56 -67 56 -69.5625 54.125 C-70.366875 53.42375 -71.17125 52.7225 -72 52 C-77.22828586 50.25723805 -82.42514761 49.86044052 -87.55078125 52.12890625 C-92.15646527 55.01593895 -95.47542269 57.61316019 -97 63 C-97.63239786 68.35105883 -97.95548136 73.10775784 -94.9375 77.75 C-93 81 -93 81 -93.0625 84.3125 C-93.5265625 86.1378125 -93.5265625 86.1378125 -94 88 C-94.11988281 88.78632813 -94.23976563 89.57265625 -94.36328125 90.3828125 C-95.53712332 96.24306225 -97.44981399 98.77164519 -102.375 102.1875 C-103.35082031 102.826875 -104.32664062 103.46625 -105.33203125 104.125 C-110.29692935 107.61424024 -113.12216913 112.25319002 -115 118 C-116.18401945 129.60339059 -114.67394142 137.45648202 -107.8125 147.0625 C-106.14090662 149.07440396 -106.14090662 149.07440396 -104 150 C-104.60749146 153.62032075 -106.09376565 155.6022516 -108.375 158.4375 C-122.40440582 177.36205821 -132.98537016 201.10957905 -131 225 C-129.5885095 232.70734741 -125.38888435 238.74805847 -121.00878906 245.06884766 C-116.15202661 252.0891421 -112.07587215 259.50787753 -108 267 C-110.69988468 268.34994234 -112.02543746 267.81773734 -114.9375 267.125 C-116.25041016 266.85042969 -116.25041016 266.85042969 -117.58984375 266.5703125 C-120.91102595 264.40643042 -121.19119309 262.1679729 -122.25073242 258.45605469 C-123.43211552 254.58355094 -125.27999463 251.12089752 -127.1875 247.5625 C-127.58187256 246.82459229 -127.97624512 246.08668457 -128.38256836 245.32641602 C-133.54177637 235.91006059 -140.25117445 228.37787114 -148 221 C-147.5875 221.62003906 -147.175 222.24007812 -146.75 222.87890625 C-128 251.63169643 -128 251.63169643 -128 262 C-131.25188586 261.38456044 -134.50109779 260.75598514 -137.75 260.125 C-139.13058594 259.86396484 -139.13058594 259.86396484 -140.5390625 259.59765625 C-141.87324219 259.33662109 -141.87324219 259.33662109 -143.234375 259.0703125 C-144.05131836 258.91320801 -144.86826172 258.75610352 -145.70996094 258.59423828 C-149.88577041 257.51066469 -151.58251161 256.67658943 -153.89453125 252.9296875 C-154.55330895 251.58750013 -155.19118206 250.23493346 -155.8125 248.875 C-156.32417725 247.76185425 -156.32417725 247.76185425 -156.84619141 246.6262207 C-164.14808719 230.0627664 -168.02290352 213.02643296 -169 195 C-169.34590681 214.7619222 -168.47371602 233.46869914 -159.24609375 251.41015625 C-158.83488281 252.26480469 -158.42367187 253.11945313 -158 254 C-158.33 254.66 -158.66 255.32 -159 256 C-164.87135102 246.54060114 -170.36805707 236.99559214 -175.10205078 226.91162109 C-175.92549108 225.15862014 -176.77217086 223.41658457 -177.62109375 221.67578125 C-185.76042422 203.47327856 -188.57574097 183.4684216 -188.5 163.6875 C-188.4984491 163.01656311 -188.49689819 162.34562622 -188.49530029 161.65435791 C-188.18275727 115.21959831 -170.46548042 72.91437254 -137.49560547 40.19702148 C-117.30850781 20.63019778 -92.36790492 6.55609979 -65 0 C-63.99743164 -0.24556641 -63.99743164 -0.24556641 -62.97460938 -0.49609375 C-42.8913237 -5.19189581 -19.99995858 -5.06909433 0 0 Z " transform="translate(283,82)" style="fill: #FDF5DF;"/><path d="M0 0 C4.08918232 2.16032274 6.13335511 3.82853067 8 8 C8.52464844 7.74605469 9.04929687 7.49210938 9.58984375 7.23046875 C31.27774111 -2.40458715 55.19235357 -0.9472551 77 7 C77.44472656 6.06414062 77.44472656 6.06414062 77.8984375 5.109375 C79.30217008 2.42137644 80.30211317 1.41994043 83 0 C89.4856787 -0.83686177 89.4856787 -0.83686177 92.78125 0.984375 C95.69658004 3.29949003 97.63704817 5.56738057 99 9 C99.1953125 11.359375 99.1953125 11.359375 99.125 13.75 C99.10695313 14.54921875 99.08890625 15.3484375 99.0703125 16.171875 C99.04710937 16.77515625 99.02390625 17.3784375 99 18 C98.01 18 97.02 18 96 18 C95.98582031 17.40832031 95.97164062 16.81664062 95.95703125 16.20703125 C95.69709683 11.90055016 95.37489196 9.52484874 92.8125 5.9375 C89.55300187 3.69206795 87.87547487 3.54936339 84 4 C83.34 5.98 82.68 7.96 82 10 C82.59039062 10.27070313 83.18078125 10.54140625 83.7890625 10.8203125 C92.38523 15.40696018 96.80242736 24.51242909 99.81640625 33.41015625 C100.69920976 36.71295261 101 39.5670824 101 43 C100.01 43 99.02 43 98 43 C98 43.66 98 44.32 98 45 C98.66 45.20625 99.32 45.4125 100 45.625 C107.4788396 49.05280148 114.44510656 54.86414278 118.1484375 62.30859375 C119.15428435 65.48762348 119.2655662 68.16883307 119.25 71.5 C119.25773437 73.15515625 119.25773437 73.15515625 119.265625 74.84375 C119.00303615 77.96392334 118.32438782 80.18304814 117 83 C114.3534665 80.3534665 113.40058003 77.43778736 112 74 C111.88785156 75.25103516 111.88785156 75.25103516 111.7734375 76.52734375 C110.70836313 85.64312735 108.17344859 92.92324405 101 99 C99.66666667 99.33333333 98.33333333 99.66666667 97 100 C95.22054117 101.38604605 95.22054117 101.38604605 93.5 103.125 C88.5379717 107.66412816 82.87135262 110.78054165 77 114 C86.57157647 110.94819301 95.40318602 107.66310249 103.87109375 102.171875 C106 101 106 101 109 101 C120.4481034 113.28108107 136.48367792 133.92678802 136.28125 151.234375 C135.67088375 157.23630982 133.39411969 162.2290912 129.6875 166.9375 C124.30518431 171.06811437 119.75391056 172.41350473 113 172 C113 168.42424104 114.08840607 166.94704065 116 164 C115.34 164 114.68 164 114 164 C113.67 164.99 113.34 165.98 113 167 C110.9375 167.6875 110.9375 167.6875 109 168 C109 167.01 109 166.02 109 165 C108.05125 165.495 107.1025 165.99 106.125 166.5 C103 168 103 168 101 168 C101.57584432 165.61435923 102.22227595 163.33317216 103 161 C101.68 161 100.36 161 99 161 C98.625 158.25 98.625 158.25 99 155 C101.75 152.9375 101.75 152.9375 105 151 C105.66 150.154375 106.32 149.30875 107 148.4375 C110.38677171 144.30987198 114.21121363 142.97850072 119.375 142.3125 C120.57125 142.209375 121.7675 142.10625 123 142 C113.9865894 141.36972363 113.9865894 141.36972363 105.4375 143.625 C99.25860424 149.64546254 96.49139604 154.54875579 95 163 C95.66 163.33 96.32 163.66 97 164 C96.95875 164.94875 96.9175 165.8975 96.875 166.875 C96.65026182 170.10244856 96.65026182 170.10244856 99 172 C101.57061311 172.64767793 101.57061311 172.64767793 104 173 C104 173.66 104 174.32 104 175 C105.11375 175.185625 105.11375 175.185625 106.25 175.375 C109 176 109 176 110.859375 177.02734375 C113.40312076 178.18316983 115.21755738 178.23415681 118 178.1875 C118.845625 178.18105469 119.69125 178.17460937 120.5625 178.16796875 C122.83252477 178.01154076 124.81961604 177.63089814 127 177 C126.44001914 189.40357604 122.12929684 200.80499517 117 212 C116.7642627 212.60086426 116.52852539 213.20172852 116.28564453 213.82080078 C112.04761526 224.56063423 112.04761526 224.56063423 106.87646484 227.00292969 C101.68162443 228.67349382 96.41396908 229.43315281 91 230 C91.33 229.01 91.66 228.02 92 227 C90.02 227.99 90.02 227.99 88 229 C88.33 227.35 88.66 225.7 89 224 C85.54832597 226.47812494 83.76836694 227.79606135 83 232 C81.52466797 232.32871094 81.52466797 232.32871094 80.01953125 232.6640625 C64.5793196 236.16736725 49.38220395 240.52396605 34.30078125 245.3359375 C32 246 32 246 30 246 C29.34 245.01 28.68 244.02 28 243 C27.01 243 26.02 243 25 243 C25.33 244.32 25.66 245.64 26 247 C22.25 248.125 22.25 248.125 20 247 C20 247.99 20 248.98 20 250 C16.02648852 251.75142161 12.04317917 253.47756163 8.04931641 255.18188477 C6.69452984 255.7640524 5.34255862 256.35282061 3.99365234 256.94848633 C2.04462281 257.80775914 0.08641756 258.64211811 -1.875 259.47265625 C-3.04804688 259.98062744 -4.22109375 260.48859863 -5.4296875 261.01196289 C-10.39681888 262.38655129 -14.33065257 262.01365762 -19.21484375 260.15893555 C-19.78332031 259.821604 -20.35179687 259.48427246 -20.9375 259.13671875 C-21.5965332 258.75080566 -22.25556641 258.36489258 -22.93457031 257.96728516 C-23.61616211 257.54495605 -24.29775391 257.12262695 -25 256.6875 C-25.73057617 256.2445459 -26.46115234 255.8015918 -27.21386719 255.34521484 C-45.46669667 244.05986328 -61.93513239 230.09025925 -75 213 C-75 212.34 -75 211.68 -75 211 C-52.89291394 211.75709199 -29.22421857 219.52517448 -9.5 229.3125 C-8.86642578 229.62541992 -8.23285156 229.93833984 -7.58007812 230.26074219 C-4.21596361 232.03361919 -2.00696666 233.75301466 0 237 C0.05418326 234.91695462 0.09287551 232.83350232 0.125 230.75 C0.14820313 229.58984375 0.17140625 228.4296875 0.1953125 227.234375 C0.00946718 224.15677642 -0.22821715 222.4900732 -2 220 C-4.55519921 219.18828772 -4.55519921 219.18828772 -7 219 C-7 219.99 -7 220.98 -7 222 C-8.3983022 221.57045619 -9.79353907 221.13092966 -11.1875 220.6875 C-11.96480469 220.44386719 -12.74210937 220.20023438 -13.54296875 219.94921875 C-18.89364604 217.88210495 -21.64507505 215.60641721 -24.625 210.6875 C-25.21539062 209.71296875 -25.80578125 208.7384375 -26.4140625 207.734375 C-29.83987915 201.82779456 -29.83987915 201.82779456 -31 199 C-30.67 198.34 -30.34 197.68 -30 197 C-28.824375 197.495 -27.64875 197.99 -26.4375 198.5 C-21.01345683 200.5018437 -16.61613756 200.79042457 -11.25 198.5 C-6.92731159 196.68125634 -3.04860726 196.83512598 1.58203125 197.08984375 C4.26496749 197.20138255 4.26496749 197.20138255 7 195 C7 194.05125 7 193.1025 7 192.125 C7 188.47758457 7.86738175 187.78167597 10 185 C9.96044102 183.07690578 9.96044102 183.07690578 9 181 C8.5875 179.845 8.175 178.69 7.75 177.5 C5.85668444 173.71336889 4.30171498 172.53387429 1 170 C0.01271095 168.70914007 -0.9433806 167.39409466 -1.875 166.0625 C-4.80237132 162.01561717 -7.72315416 159.58224655 -12 157 C-12.99 157 -13.98 157 -15 157 C-14.55269531 157.3403125 -14.10539062 157.680625 -13.64453125 158.03125 C-9.47814013 161.37146974 -6.90693903 164.55837982 -4.265625 169.171875 C-2.32448627 171.97574206 0.10882838 173.25184972 3 175 C3 175.66 3 176.32 3 177 C2.34 177.33 1.68 177.66 1 178 C1.825 178.78375 2.65 179.5675 3.5 180.375 C6 183 6 183 6 185 C4.02 185 2.04 185 0 185 C0.66 186.98 1.32 188.96 2 191 C-1.33333333 191 -4.66666667 191 -8 191 C-9.66740515 191.66481749 -11.33403269 192.33158759 -13 193 C-23.1434345 194.64317319 -29.80103712 190.53971941 -37.9375 185 C-44.75221377 178.39179271 -47.16587665 171.05194965 -47.375 161.8125 C-46.82327514 140.29523049 -35.82073547 117.38834917 -22 101 C-16.98230755 101.55861029 -13.26249859 103.92482786 -9 106.4375 C-1.02966165 111.35421763 -1.02966165 111.35421763 8 113 C-0.53110634 105.46966051 -0.53110634 105.46966051 -10.4375 100.1875 C-16.21530221 97.5099819 -19.8981027 92.90742933 -22.375 87.125 C-24.0647994 82.41667004 -24.67873462 77.97961339 -25 73 C-26.89865603 75.97180943 -28.35455571 78.51460083 -29 82 C-29.66 82 -30.32 82 -31 82 C-33.68983686 75.99377794 -34.28719254 69.89282015 -32.1953125 63.56640625 C-27.70873219 54.63965853 -19.98004817 48.91856648 -11 45 C-12.32 44.67 -13.64 44.34 -15 44 C-9.41374909 19.75059263 -9.41374909 19.75059263 -0.296875 11.44921875 C0.13109375 10.97097656 0.5590625 10.49273437 1 10 C0.76956136 7.34533951 0.76956136 7.34533951 0 5 C-3.30567489 4.14612895 -3.30567489 4.14612895 -7 4 C-9.94454079 6.14530829 -10.88285269 7.42027099 -11.609375 11.015625 C-11.65578125 12.08296875 -11.7021875 13.1503125 -11.75 14.25 C-11.83507812 15.86648437 -11.83507812 15.86648437 -11.921875 17.515625 C-11.96054688 18.74539062 -11.96054688 18.74539062 -12 20 C-15 19 -15 19 -16 17 C-16.55004295 11.27955337 -15.64364029 8.43145441 -12 4 C-8.1266062 0.02191988 -5.51491156 -0.77402267 0 0 Z " transform="translate(206,137)" style="fill: #FEF6DF;"/><path d="M0 0 C0.56090332 0.39268066 1.12180664 0.78536133 1.69970703 1.18994141 C35.40388835 25.18731851 60.49604657 60.9193699 71 101 C71.29414795 102.04510742 71.29414795 102.04510742 71.59423828 103.11132812 C78.74475474 129.28116596 77.15643752 160.05190131 70 186 C69.49919922 187.90072266 69.49919922 187.90072266 68.98828125 189.83984375 C68.09707598 192.94214058 67.08568653 195.96087019 66 199 C65.60554688 200.18464844 65.21109375 201.36929688 64.8046875 202.58984375 C57.58337814 223.61934155 46.02903279 241.86006273 31.8125 258.79296875 C29.88264936 261.06835233 29.88264936 261.06835233 28 264 C28.54527344 264.13535156 29.09054687 264.27070313 29.65234375 264.41015625 C36.11921967 266.25625587 41.18460222 269.27059147 46 274 C46.33 274.99 46.66 275.98 47 277 C45.783125 276.5875 44.56625 276.175 43.3125 275.75 C39.34142281 274.43258103 35.36359608 273.13843968 31.375 271.875 C30.33085937 271.54242188 29.28671875 271.20984375 28.2109375 270.8671875 C9.83907646 265.90544401 -11.53154851 268.49672008 -30 272 C-30.94407715 272.17692383 -31.8881543 272.35384766 -32.86083984 272.53613281 C-63.26686541 278.33777684 -93.12042677 286.86405845 -122 298 C-123.35142443 298.51598678 -124.70298226 299.0316243 -126.0546875 299.546875 C-129.0398047 300.68956502 -132.02169773 301.83969193 -135 303 C-132.94085261 303.63595856 -130.87740864 304.2580044 -128.8125 304.875 C-127.66394531 305.22304688 -126.51539063 305.57109375 -125.33203125 305.9296875 C-114.31136384 308.84648992 -103.15845166 309.44821565 -91.8125 309.4375 C-91.07156097 309.43690582 -90.33062195 309.43631165 -89.56723022 309.43569946 C-60.97826687 309.30222948 -35.25010928 300.76853198 -9.12939453 289.75708008 C-5.77344124 288.56391209 -2.54171444 288.26234922 1 288 C-1.09979401 294.29938202 -10.64961996 297.74135644 -16.35546875 300.796875 C-54.0100017 319.34758276 -98.22548177 324.25785 -138.4375 311.25 C-182.92700585 295.85529703 -216.62153265 260.49663032 -237.18334961 219.05541992 C-248.49154278 195.57004922 -253.64492122 170.98801415 -253.5 145 C-253.49856995 144.16159576 -253.49713989 143.32319153 -253.4956665 142.4593811 C-253.43179798 127.21086234 -251.86772518 112.80405156 -248 98 C-247.79133301 97.18450684 -247.58266602 96.36901367 -247.36767578 95.52880859 C-242.09150858 75.77151425 -232.18751832 56.36075713 -220 40 C-219.33613281 39.10796875 -218.67226562 38.2159375 -217.98828125 37.296875 C-191.09727678 2.60584287 -152.83769016 -21.17490109 -109.1706543 -27.17553711 C-70.93077641 -31.75205335 -31.58415167 -22.13227619 0 0 Z M-123 -18 C-123.69416016 -17.83371094 -124.38832031 -17.66742188 -125.10351562 -17.49609375 C-152.65316399 -10.67812394 -176.1918625 4.10891506 -196.53955078 23.60693359 C-197.8238239 24.83195239 -199.12727272 26.03680139 -200.43359375 27.23828125 C-229.81705402 55.05043349 -244.88160079 97.64299921 -246.30859375 137.2734375 C-247.09066814 173.04781792 -238.92075974 207.30841257 -218 237 C-217.34 237.33 -216.68 237.66 -216 238 C-217.833535 232.42005936 -219.80411664 226.89262074 -221.7890625 221.36523438 C-225.89835521 209.81563139 -227.16756059 199.64877371 -227.0625 187.4375 C-227.05798828 186.42880859 -227.05347656 185.42011719 -227.04882812 184.38085938 C-227.03716769 181.92050853 -227.02080378 179.46028761 -227 177 C-226.93683594 178.1653125 -226.87367188 179.330625 -226.80859375 180.53125 C-225.47859046 199.83626766 -220.85581922 221.62427269 -210 238 C-207.08243378 240.35361851 -204.66874672 240.63628804 -201 241 C-199.00522762 241.40892834 -197.01056027 241.81866288 -195.01977539 242.24658203 C-192.02209582 242.88133515 -189.01252346 243.44036125 -186 244 C-189.2699238 229.8303302 -197.20803341 217.1024162 -205 205 C-202.96936111 205 -201.35692188 207.32932806 -200 208.625 C-190.72364972 218.03408026 -182.30636509 231.33412821 -179.22265625 244.2578125 C-178.24878985 247.26740707 -178.24878985 247.26740707 -175.1796875 248.2421875 C-174.08914062 248.45101563 -172.99859375 248.65984375 -171.875 248.875 C-170.77929688 249.09929687 -169.68359375 249.32359375 -168.5546875 249.5546875 C-167.71164063 249.70164062 -166.86859375 249.84859375 -166 250 C-170.11506637 241.99975923 -174.40163966 234.2074999 -179.25 226.625 C-187.41489585 213.83174303 -190.92573666 202.36880682 -188.3515625 187.171875 C-183.91744027 169.3595891 -175.27773359 150.62214603 -163.21484375 136.69921875 C-161.70920403 134.94139715 -161.70920403 134.94139715 -162 132 C-163.6436814 130.31066078 -165.3142876 128.64740076 -167 127 C-171.54292781 120.769699 -173.39303505 115.90379451 -173.375 108.1875 C-173.37338867 107.47553467 -173.37177734 106.76356934 -173.37011719 106.0300293 C-173.23890433 100.41424784 -172.30225126 96.5030699 -169 92 C-168.46375 91.154375 -167.9275 90.30875 -167.375 89.4375 C-165.01681331 87.01725576 -162.87938552 85.72678692 -160 84 C-154.5189335 80.31626993 -153.12378629 76.41459904 -151.42578125 70.18359375 C-150.84559155 65.84547814 -150.98091639 62.42671706 -153.5625 58.8125 C-155.86591829 54.30581204 -155.72797725 49.95024527 -155 45 C-153.09593839 39.90557739 -149.93855737 36.02557048 -145.01953125 33.625 C-140.34984651 32.17983644 -135.46420955 31.97286219 -130.91015625 33.87109375 C-129.22925697 34.84125338 -127.60975568 35.91587883 -126 37 C-122.54814726 38.15061758 -121.72311219 37.80885186 -118.375 36.6875 C-109.60390082 33.77799299 -101.55672872 32.63974329 -92.3125 32.6875 C-90.73009521 32.69052124 -90.73009521 32.69052124 -89.11572266 32.69360352 C-81.01288501 32.79742229 -73.82958646 33.89538971 -66 36 C-62.88680559 36.76698321 -62.88680559 36.76698321 -60 37 C-58.6696875 36.0409375 -58.6696875 36.0409375 -57.3125 35.0625 C-52.56279177 32.1051345 -48.4560909 31.97843404 -43 33 C-37.72194715 35.56437842 -33.42019236 39.65540855 -31 45 C-29.96916894 54.07924284 -29.96916894 54.07924284 -32.0859375 58.0234375 C-33.34436296 60.74464811 -32.76308485 62.12184299 -32 65 C-31.7834375 66.16273438 -31.566875 67.32546875 -31.34375 68.5234375 C-29.65019272 76.25421284 -28.17062165 81.06927025 -21.25 85.53125 C-15.90646807 89.0193889 -11.37883669 94.70331246 -10 101 C-9.02376992 111.46735585 -10.05508465 119.55554567 -16.6875 127.8125 C-17.62142578 128.87404297 -17.62142578 128.87404297 -18.57421875 129.95703125 C-20.38153615 132.13147767 -20.38153615 132.13147767 -20 136 C-18.19810022 138.7011758 -18.19810022 138.7011758 -15.75 141.5625 C-11.31485824 147.07932446 -7.39540338 152.82321539 -3.625 158.8125 C-3.12581055 159.60019775 -2.62662109 160.38789551 -2.11230469 161.19946289 C4.57031839 171.90495296 8.56044762 181.1477593 7 194 C5.54040142 199.07196417 3.69868828 203.89686213 0.359375 208.03125 C-1.31151927 210.45116584 -1.36127922 211.89369234 -1.4375 214.8125 C-2.58361537 231.68961068 -9.75660587 247.4849746 -18 262 C-13.33016379 262.57823991 -9.48737463 262.49579154 -5 261 C-1.0955167 257.43052059 1.33177579 252.50616712 3.88867188 247.9375 C9.89695977 237.46259387 18.01853972 227.3739061 29 222 C28.05125 222.845625 27.1025 223.69125 26.125 224.5625 C22.48684192 228.19324839 19.65202587 232.1782112 16.8125 236.4375 C16.39693848 237.05761963 15.98137695 237.67773926 15.55322266 238.31665039 C9.5266704 246.97853893 9.5266704 246.97853893 8 257 C9.65 256.01 11.3 255.02 13 254 C9.25 257.875 9.25 257.875 7 259 C7 259.66 7 260.32 7 261 C11.243342 261.88026775 14.76364736 261.99025347 19 261 C23.83998649 257.3378049 27.38502664 252.84204126 31 248 C31.47856445 247.36368652 31.95712891 246.72737305 32.45019531 246.07177734 C58.27947721 211.18375956 72.8932996 167.20113627 67.58544922 123.59423828 C66.42543581 116.30840798 64.79848885 109.15183323 63 102 C62.80776855 101.20416504 62.61553711 100.40833008 62.41748047 99.58837891 C52.39565707 58.77564501 24.03437589 22.78561021 -11.44140625 0.83984375 C-23.97690208 -6.56166061 -36.68623205 -11.84230167 -50.6875 -15.8125 C-52.2185437 -16.24767944 -52.2185437 -16.24767944 -53.78051758 -16.69165039 C-65.90102756 -19.98840577 -77.63521572 -21.3704724 -90.1875 -21.3125 C-92.09160645 -21.30512817 -92.09160645 -21.30512817 -94.03417969 -21.29760742 C-103.9600849 -21.1744494 -113.36003819 -20.3611864 -123 -18 Z M-149 43 C-151.23473977 46.73931704 -151.31635349 49.65013951 -151 54 C-150.34 54.99 -149.68 55.98 -149 57 C-148.34 57 -147.68 57 -147 57 C-146.96132812 55.77023438 -146.96132812 55.77023438 -146.921875 54.515625 C-146.83679688 52.89914063 -146.83679688 52.89914063 -146.75 51.25 C-146.70359375 50.18265625 -146.6571875 49.1153125 -146.609375 48.015625 C-145.88285269 44.42027099 -144.94454079 43.14530829 -142 41 C-138.25 41.25 -138.25 41.25 -135 42 C-134.30078125 44.26171875 -134.30078125 44.26171875 -134 47 C-135.29296875 48.95703125 -135.29296875 48.95703125 -137.1875 50.8125 C-143.92656831 58.03197714 -150 70.9007503 -150 81 C-148.68 81.33 -147.36 81.66 -146 82 C-146.71285156 82.35191406 -147.42570312 82.70382813 -148.16015625 83.06640625 C-156.46993475 87.34991253 -163.37802663 92.01390628 -167.34765625 100.75390625 C-169.16527864 107.01218694 -168.6527796 113.11082929 -166 119 C-165.34 119 -164.68 119 -164 119 C-163.79503906 118.43410156 -163.59007812 117.86820312 -163.37890625 117.28515625 C-163.10949219 116.55167969 -162.84007812 115.81820312 -162.5625 115.0625 C-162.29566406 114.33160156 -162.02882812 113.60070312 -161.75390625 112.84765625 C-161 111 -161 111 -160 110 C-159.91363281 110.845625 -159.82726562 111.69125 -159.73828125 112.5625 C-158.36729247 123.6310333 -155.31721806 129.39156688 -146.96484375 136.65234375 C-145.11885752 138.09732937 -145.11885752 138.09732937 -143.09301758 138.42773438 C-140.73220578 139.07321937 -139.44475645 139.97505731 -137.546875 141.50390625 C-136.928125 141.99697266 -136.309375 142.49003906 -135.671875 142.99804688 C-134.72054687 143.77245117 -134.72054687 143.77245117 -133.75 144.5625 C-133.1003125 145.08263672 -132.450625 145.60277344 -131.78125 146.13867188 C-130.18272331 147.419844 -128.59071374 148.70914005 -127 150 C-132.36595899 149.44490079 -136.41049723 147.56534559 -141.125 145.125 C-141.82753906 144.77308594 -142.53007812 144.42117187 -143.25390625 144.05859375 C-146.11365192 142.60439416 -148.71082162 141.22670779 -151.2421875 139.2421875 C-153.18570644 137.61525958 -153.18570644 137.61525958 -157 138 C-171.41307174 152.26965809 -181.8394429 178.87187471 -182.4375 198.6875 C-182.22750795 207.9462402 -179.8094166 215.48664499 -173 222 C-169.76375571 224.18906931 -166.43709913 226.14452535 -163 228 C-162.34902344 228.38027344 -161.69804687 228.76054687 -161.02734375 229.15234375 C-156.92358397 230.86817395 -152.35569185 230.44575794 -148 230 C-146.96875 229.484375 -145.9375 228.96875 -144.875 228.4375 C-140.76923876 226.38461938 -137.40452922 227.18760905 -133 228 C-133.66 226.02 -134.32 224.04 -135 222 C-133.02 222 -131.04 222 -129 222 C-130.29299694 219.11562221 -131.65941363 217.12780579 -134 215 C-133.34 214.67 -132.68 214.34 -132 214 C-133.02898911 211.28721053 -133.63846415 210.19081059 -136.25 208.8125 C-139.77339104 206.49026499 -141.28826834 203.69463274 -143.5078125 200.1640625 C-145.31339738 197.54549176 -147.37357763 195.77669749 -150 194 C-145.25148525 194 -142.43604844 196.90363695 -139 200 C-137.35067642 202.00220211 -135.85898739 204.05811896 -134.37890625 206.1875 C-132.94963806 208.22890116 -132.94963806 208.22890116 -130.25 210.125 C-127.39706723 212.50244397 -126.88958533 214.44165868 -126 218 C-125.731875 218.70125 -125.46375 219.4025 -125.1875 220.125 C-125 222 -125 222 -126.4375 223.875 C-128.30853669 225.98000682 -128.30853669 225.98000682 -128 229.125 C-128 230.07375 -128 231.0225 -128 232 C-131.3925139 234.26167593 -132.26852184 234.15307144 -136.1875 233.9375 C-140.82178997 233.83370167 -143.96027268 234.52465976 -148.17578125 236.3203125 C-154.34560725 238.61913418 -160.19553928 236.21122313 -166 234 C-164.6671703 238.43613466 -162.91262725 242.19986474 -160.5625 246.1875 C-159.96566406 247.21230469 -159.36882812 248.23710937 -158.75390625 249.29296875 C-155.94570066 253.62723707 -153.7682929 255.33059728 -148.9375 257.1875 C-147.62072266 257.70376953 -147.62072266 257.70376953 -146.27734375 258.23046875 C-144.08484915 259.10670837 -144.08484915 259.10670837 -142 259 C-142 258.01 -142 257.02 -142 256 C-139.625 256.25 -139.625 256.25 -137 257 C-134.56696694 260.41939782 -134.79328995 263.66449761 -134.875 267.75 C-134.89304687 268.92046875 -134.91109375 270.0909375 -134.9296875 271.296875 C-134.95289063 272.18890625 -134.97609375 273.0809375 -135 274 C-135.51949219 273.25105469 -136.03898437 272.50210938 -136.57421875 271.73046875 C-139.33398296 268.62406748 -142.10065501 267.00966834 -145.8125 265.3125 C-146.88177734 264.81810425 -146.88177734 264.81810425 -147.97265625 264.3137207 C-166.64545238 256.06618769 -189.41772134 247.56141263 -210 248 C-201.23297195 268.91782132 -171.99465136 289.21775241 -152 298 C-145.98058806 299.19676438 -142.63011224 298.96482539 -136.875 296.47265625 C-136.24263428 296.20488876 -135.61026855 295.93712128 -134.95874023 295.66123962 C-132.96458288 294.81217543 -130.98266016 293.93802613 -129 293.0625 C-127.64005333 292.478115 -126.27938084 291.89541603 -124.91796875 291.31445312 C-121.60336981 289.89568169 -118.29922865 288.4542151 -115 287 C-115 286.01 -115 285.02 -115 284 C-113.35 284.33 -111.7 284.66 -110 285 C-109.67 284.01 -109.34 283.02 -109 282 C-109.99 281.01 -110.98 280.02 -112 279 C-109.97954558 279.60183749 -107.97888961 280.27306096 -106 281 C-105.67 281.66 -105.34 282.32 -105 283 C-97.43581562 281.40685843 -90.09138047 279.47041295 -82.74951172 277.0480957 C-78.44224531 275.66394568 -74.1252483 274.53183102 -69.71484375 273.51953125 C-68.6266333 273.2666333 -67.53842285 273.01373535 -66.41723633 272.75317383 C-64.24798819 272.25690905 -62.07458684 271.77841296 -59.8972168 271.3190918 C-58.90246338 271.0900415 -57.90770996 270.86099121 -56.8828125 270.625 C-55.98965332 270.43164062 -55.09649414 270.23828125 -54.17626953 270.0390625 C-51.75760658 269.1660738 -51.75760658 269.1660738 -50.82763672 266.51171875 C-50.5545166 265.68285156 -50.28139648 264.85398437 -50 264 C-47.875 262.1875 -47.875 262.1875 -46 261 C-46.33 262.65 -46.66 264.3 -47 266 C-45.68 265.67 -44.36 265.34 -43 265 C-43.33 265.66 -43.66 266.32 -44 267 C-33.30215012 266.39886093 -33.30215012 266.39886093 -24.26269531 261.30175781 C-20.61746563 256.32308427 -18.28088024 250.69989668 -16 245 C-15.68611328 244.25943359 -15.37222656 243.51886719 -15.04882812 242.75585938 C-11.13334358 233.50184321 -7.82210923 224.15756268 -8 214 C-8.83724609 214.23976563 -8.83724609 214.23976563 -9.69140625 214.484375 C-14.81607981 215.62897214 -20.17386606 215.95276553 -24.875 213.5 C-25.57625 213.005 -26.2775 212.51 -27 212 C-28.32 212 -29.64 212 -31 212 C-31 211.34 -31 210.68 -31 210 C-31.969375 209.7525 -32.93875 209.505 -33.9375 209.25 C-37 208 -37 208 -37.875 206.0625 C-37.97711653 204.37757728 -38 202.68801432 -38 201 C-38.66 200.67 -39.32 200.34 -40 200 C-38.8387437 192.33570841 -35.67123561 186.25525256 -30 181 C-26.39002781 178.5257494 -23.03296176 178.79568589 -18.75 178.875 C-17.48671875 178.89304687 -16.2234375 178.91109375 -14.921875 178.9296875 C-13.95765625 178.95289063 -12.9934375 178.97609375 -12 179 C-12.73605469 179.09796875 -13.47210938 179.1959375 -14.23046875 179.296875 C-21.49208615 180.40961954 -25.41767294 181.71340193 -30.0625 187.625 C-31.96328451 189.95499392 -33.24244087 190.9166732 -36 192 C-36 193.98 -36 195.96 -36 198 C-34.68 198 -33.36 198 -32 198 C-32.33 198.598125 -32.66 199.19625 -33 199.8125 C-34.20787988 202.05386471 -34.20787988 202.05386471 -34 205 C-29.92035719 203.69844994 -29.92035719 203.69844994 -26 202 C-26 202.99 -26 203.98 -26 205 C-23.525 204.01 -23.525 204.01 -21 203 C-21 202.34 -21 201.68 -21 201 C-20.34 201 -19.68 201 -19 201 C-19.7425 202.1446875 -19.7425 202.1446875 -20.5 203.3125 C-22.24368308 205.92363751 -22.24368308 205.92363751 -22 209 C-16.02900034 209.4975833 -11.98247942 208.37759658 -7 205 C-1.47043561 199.59331481 1.07709393 193.78963576 1.4375 186.125 C0.94110471 175.64495969 -5.05961542 167.3463793 -10.8125 158.9375 C-11.49892578 157.91333984 -12.18535156 156.88917969 -12.89257812 155.83398438 C-17.03550832 149.69993919 -21.36657803 143.772445 -26 138 C-30.49238937 138.7674697 -33.77742801 140.45328043 -37.625 142.8125 C-51.41947545 151 -51.41947545 151 -58 151 C-57.23816406 150.5875 -56.47632813 150.175 -55.69140625 149.75 C-49.42314214 146.24415441 -44.07065275 142.63749645 -38.9375 137.6015625 C-36.86136275 135.88540066 -35.56290081 135.61365231 -33 135 C-26.73801193 129.71788292 -24.23190984 122.92680376 -23.3125 115 C-23.209375 113.68 -23.10625 112.36 -23 111 C-21.02 115.455 -21.02 115.455 -19 120 C-15.65246016 116.65246016 -15.78857396 113.35018893 -15.6875 108.8125 C-15.77700958 100.74768695 -17.79767215 96.13912953 -23.25 90.3125 C-29.34365209 84.48752769 -29.34365209 84.48752769 -37 82 C-37 81.34 -37 80.68 -37 80 C-36.01 80 -35.02 80 -34 80 C-34.58738499 68.25230028 -38.82143446 59.52400953 -46.81640625 50.9609375 C-48.82573436 49.15649615 -50.52746434 48.04283817 -53 47 C-52.34 45.02 -51.68 43.04 -51 41 C-47.12452513 40.54936339 -45.44699813 40.69206795 -42.1875 42.9375 C-39.34344648 46.91917493 -39.11493224 50.20419089 -39 55 C-38.01 55 -37.02 55 -36 55 C-35.62035248 50.25440599 -35.51771828 46.93011475 -37.75 42.625 C-41.18669403 38.61552363 -42.49630129 37.19402564 -47.875 36.5 C-52.63554172 36.6604677 -54.77982355 38.61881473 -58 42 C-58 42.66 -58 43.32 -58 44 C-59.18851563 43.566875 -60.37703125 43.13375 -61.6015625 42.6875 C-82.55628688 35.48010169 -106.67284092 35.16105568 -127 45 C-127.27457031 44.38640625 -127.54914063 43.7728125 -127.83203125 43.140625 C-129.59908412 39.90201305 -131.76962008 38.70661581 -135 37 C-141.45029615 35.82721888 -144.90529439 38.28946795 -149 43 Z " transform="translate(341,100)" style="fill: #0D1828;"/><path d="M0 0 C4.08918232 2.16032274 6.13335511 3.82853067 8 8 C8.52464844 7.74605469 9.04929688 7.49210938 9.58984375 7.23046875 C31.27774111 -2.40458715 55.19235357 -0.9472551 77 7 C77.29648437 6.37609375 77.59296875 5.7521875 77.8984375 5.109375 C79.30217008 2.42137644 80.30211317 1.41994043 83 0 C89.4856787 -0.83686177 89.4856787 -0.83686177 92.78125 0.984375 C95.69658004 3.29949003 97.63704817 5.56738057 99 9 C99.1953125 11.359375 99.1953125 11.359375 99.125 13.75 C99.10695313 14.54921875 99.08890625 15.3484375 99.0703125 16.171875 C99.04710937 16.77515625 99.02390625 17.3784375 99 18 C98.01 18 97.02 18 96 18 C95.98582031 17.40832031 95.97164062 16.81664062 95.95703125 16.20703125 C95.69709683 11.90055016 95.37489196 9.52484874 92.8125 5.9375 C89.55300187 3.69206795 87.87547487 3.54936339 84 4 C83.34 5.98 82.68 7.96 82 10 C82.59039062 10.27070313 83.18078125 10.54140625 83.7890625 10.8203125 C92.38523 15.40696018 96.80242736 24.51242909 99.81640625 33.41015625 C100.69920976 36.71295261 101 39.5670824 101 43 C100.01 43 99.02 43 98 43 C98 43.66 98 44.32 98 45 C98.66 45.20625 99.32 45.4125 100 45.625 C107.4788396 49.05280148 114.44510656 54.86414278 118.1484375 62.30859375 C119.15428435 65.48762348 119.2655662 68.16883307 119.25 71.5 C119.25773437 73.15515625 119.25773437 73.15515625 119.265625 74.84375 C119.00303615 77.96392334 118.32438782 80.18304814 117 83 C114.3534665 80.3534665 113.40058003 77.43778736 112 74 C111.88785156 75.25103516 111.88785156 75.25103516 111.7734375 76.52734375 C110.70836313 85.64312735 108.17344859 92.92324405 101 99 C99.66713373 99.33519607 98.33378561 99.66848103 97 100 C95.25423859 101.35186294 95.25423859 101.35186294 93.5625 103.0625 C88.97325592 107.26858139 83.90332026 110.25463648 78.5625 113.3984375 C77.2940625 114.19121094 77.2940625 114.19121094 76 115 C76 115.33 76 115.66 76 116 C70.72 117.32 65.44 118.64 60 120 C60.99 118.68 61.98 117.36 63 116 C61.92621094 116.51691406 60.85242188 117.03382813 59.74609375 117.56640625 C58.31031798 118.23268128 56.87409596 118.89799526 55.4375 119.5625 C54.73302734 119.90474609 54.02855469 120.24699219 53.30273438 120.59960938 C48.45976115 122.80907642 45.30850542 123.46105654 40 122 C36.47265625 120.37109375 36.47265625 120.37109375 33.0625 118.4375 C31.91910156 117.79683594 30.77570313 117.15617187 29.59765625 116.49609375 C28.74042969 116.00238281 27.88320312 115.50867188 27 115 C27.33 115.99 27.66 116.98 28 118 C28 118.66 28 119.32 28 120 C19.7844358 118.31750973 19.7844358 118.31750973 16.375 116.9375 C13.29759977 115.72273675 10.27336904 115.38510224 7 115 C7 114.01 7 113.02 7 112 C5.21352437 110.21827014 5.21352437 110.21827014 2.875 108.5625 C2.05257812 107.95148438 1.23015625 107.34046875 0.3828125 106.7109375 C-4.71896629 102.88030506 -4.71896629 102.88030506 -10.4375 100.1875 C-16.21530221 97.5099819 -19.8981027 92.90742933 -22.375 87.125 C-24.0647994 82.41667004 -24.67873462 77.97961339 -25 73 C-26.89865603 75.97180943 -28.35455571 78.51460083 -29 82 C-29.66 82 -30.32 82 -31 82 C-33.68983686 75.99377794 -34.28719254 69.89282015 -32.1953125 63.56640625 C-27.70873219 54.63965853 -19.98004817 48.91856648 -11 45 C-12.32 44.67 -13.64 44.34 -15 44 C-9.41374909 19.75059263 -9.41374909 19.75059263 -0.296875 11.44921875 C0.13109375 10.97097656 0.5590625 10.49273437 1 10 C0.76956136 7.34533951 0.76956136 7.34533951 0 5 C-3.30567489 4.14612895 -3.30567489 4.14612895 -7 4 C-9.94454079 6.14530829 -10.88285269 7.42027099 -11.609375 11.015625 C-11.67898437 12.61664063 -11.67898437 12.61664063 -11.75 14.25 C-11.80671875 15.32765625 -11.8634375 16.4053125 -11.921875 17.515625 C-11.94765625 18.33546875 -11.9734375 19.1553125 -12 20 C-15 19 -15 19 -16 17 C-16.55004295 11.27955337 -15.64364029 8.43145441 -12 4 C-8.1266062 0.02191988 -5.51491156 -0.77402267 0 0 Z " transform="translate(206,137)" style="fill: #DF9854;"/><path d="M0 0 C-3.28978528 12.72627465 -11.96052333 19.58690196 -23.00097656 26.19824219 C-30.9831276 30.75894122 -39.11490962 34.72213399 -47.77734375 37.83203125 C-49.59698989 38.49151512 -51.41030815 39.17182481 -53.19555664 39.91943359 C-63.75717191 44.33940514 -74.83793199 46.59874287 -86 49 C-86.99451172 49.2175293 -87.98902344 49.43505859 -89.01367188 49.65917969 C-102.5102437 52.50986595 -115.74988199 53.36538764 -129.5 53.375 C-130.24641754 53.37699402 -130.99283508 53.37898804 -131.76187134 53.38104248 C-145.41216099 53.37690301 -159.19969855 52.61062978 -172.4375 49.0625 C-173.09379395 48.88702637 -173.75008789 48.71155273 -174.42626953 48.53076172 C-176.28659723 48.02939356 -178.14344133 47.51514958 -180 47 C-180.94746094 46.76410156 -181.89492187 46.52820313 -182.87109375 46.28515625 C-189.27536914 44.59666555 -194.48285329 41.6272305 -200 38 C-199.50168276 34.31245243 -198.89932357 32.39509338 -196 30 C-194.824375 30.391875 -193.64875 30.78375 -192.4375 31.1875 C-191.60347656 31.46078125 -190.76945313 31.7340625 -189.91015625 32.015625 C-187.88536666 32.70052027 -185.87279395 33.42217455 -183.87109375 34.171875 C-159.19380371 43.10532972 -131.77099894 44.85897116 -106 40 C-104.83726562 39.81695312 -103.67453125 39.63390625 -102.4765625 39.4453125 C-82.79253767 36.04572612 -58.4290432 28.14485524 -43 15 C-42.67 14.34 -42.34 13.68 -42 13 C-51.53771208 15.79118339 -60.84042353 19.01688665 -70.125 22.5625 C-78.68047956 25.80592653 -87.08575302 28.88225072 -96 31 C-96.68336426 31.17901855 -97.36672852 31.35803711 -98.07080078 31.54248047 C-119.93161905 37.17524186 -146.10370178 37.71879789 -168 32 C-169.13695312 31.71382813 -170.27390625 31.42765625 -171.4453125 31.1328125 C-173.98002744 30.46578225 -176.49302218 29.76346409 -179 29 C-177.50803615 26.0160723 -175.41734319 25.81503033 -172.33203125 24.64453125 C-171.1406958 24.19062012 -169.94936035 23.73670898 -168.72192383 23.26904297 C-167.41910884 22.78265376 -166.11595878 22.29716127 -164.8125 21.8125 C-164.15253021 21.56534241 -163.49256042 21.31818481 -162.81259155 21.0635376 C-132.1105009 9.57911332 -100.31973676 0.59332359 -68 -5 C-67.28392578 -5.12987305 -66.56785156 -5.25974609 -65.83007812 -5.39355469 C-43.63096001 -9.32075249 -20.95434934 -8.42450372 0 0 Z " transform="translate(384,375)" style="fill: #E19A57;"/><path d="M0 0 C1.98 0.33 3.96 0.66 6 1 C6 1.66 6 2.32 6 3 C6.7425 3.12375 7.485 3.2475 8.25 3.375 C11 4 11 4 12.859375 5.02734375 C15.40312076 6.18316983 17.21755738 6.23415681 20 6.1875 C20.845625 6.18105469 21.69125 6.17460937 22.5625 6.16796875 C24.83252477 6.01154076 26.81961604 5.63089814 29 5 C28.44001914 17.40357604 24.12929684 28.80499517 19 40 C18.7642627 40.60086426 18.52852539 41.20172852 18.28564453 41.82080078 C14.04761526 52.56063423 14.04761526 52.56063423 8.87646484 55.00292969 C3.68162443 56.67349382 -1.58603092 57.43315281 -7 58 C-6.67 57.01 -6.34 56.02 -6 55 C-7.32 55.66 -8.64 56.32 -10 57 C-9.67 55.35 -9.34 53.7 -9 52 C-12.45167403 54.47812494 -14.23163306 55.79606135 -15 60 C-15.98355469 60.21914063 -16.96710938 60.43828125 -17.98046875 60.6640625 C-33.4206804 64.16736725 -48.61779605 68.52396605 -63.69921875 73.3359375 C-66 74 -66 74 -68 74 C-68.66 73.01 -69.32 72.02 -70 71 C-70.99 71 -71.98 71 -73 71 C-72.67 72.32 -72.34 73.64 -72 75 C-75.75 76.125 -75.75 76.125 -78 75 C-78 75.99 -78 76.98 -78 78 C-81.97351148 79.75142161 -85.95682083 81.47756163 -89.95068359 83.18188477 C-91.30547016 83.7640524 -92.65744138 84.35282061 -94.00634766 84.94848633 C-95.95537719 85.80775914 -97.91358244 86.64211811 -99.875 87.47265625 C-101.04804688 87.98062744 -102.22109375 88.48859863 -103.4296875 89.01196289 C-108.39681888 90.38655129 -112.33065257 90.01365762 -117.21484375 88.15893555 C-117.78332031 87.821604 -118.35179687 87.48427246 -118.9375 87.13671875 C-119.9260498 86.55784912 -119.9260498 86.55784912 -120.93457031 85.96728516 C-121.95695801 85.3337915 -121.95695801 85.3337915 -123 84.6875 C-123.73057617 84.2445459 -124.46115234 83.8015918 -125.21386719 83.34521484 C-143.46669667 72.05986328 -159.93513239 58.09025925 -173 41 C-173 40.34 -173 39.68 -173 39 C-150.89291394 39.75709199 -127.22421857 47.52517448 -107.5 57.3125 C-106.54963867 57.78187988 -106.54963867 57.78187988 -105.58007812 58.26074219 C-102.21596361 60.03361919 -100.00696666 61.75301466 -98 65 C-97.94581674 62.91695462 -97.90712449 60.83350232 -97.875 58.75 C-97.85179687 57.58984375 -97.82859375 56.4296875 -97.8046875 55.234375 C-97.99053282 52.15677642 -98.22821715 50.4900732 -100 48 C-102.55519921 47.18828772 -102.55519921 47.18828772 -105 47 C-105 47.99 -105 48.98 -105 50 C-106.3983022 49.57045619 -107.79353907 49.13092966 -109.1875 48.6875 C-109.96480469 48.44386719 -110.74210937 48.20023437 -111.54296875 47.94921875 C-116.89364604 45.88210495 -119.64507505 43.60641721 -122.625 38.6875 C-123.21539062 37.71296875 -123.80578125 36.7384375 -124.4140625 35.734375 C-127.83987915 29.82779456 -127.83987915 29.82779456 -129 27 C-128.67 26.34 -128.34 25.68 -128 25 C-126.824375 25.495 -125.64875 25.99 -124.4375 26.5 C-119.01345683 28.5018437 -114.61613756 28.79042457 -109.25 26.5 C-104.95941686 24.68507497 -101.20287392 24.90656467 -96.61328125 25.28515625 C-93.12422266 24.90443685 -91.53566719 23.33464132 -89 21 C-79.35532528 39.23362959 -79.35532528 39.23362959 -76 45.8125 C-75.649375 46.49957031 -75.29875 47.18664062 -74.9375 47.89453125 C-74 50 -74 50 -73.24609375 53.0859375 C-72.24379611 56.21273488 -72.24379611 56.21273488 -69.28515625 57.64453125 C-68.22167969 58.02996094 -67.15820312 58.41539062 -66.0625 58.8125 C-65.00160156 59.21082031 -63.94070312 59.60914063 -62.84765625 60.01953125 C-51.05333516 64.08040175 -38.47165532 63.01926471 -26.98046875 58.484375 C-23.77990389 56.89038464 -20.92583607 55.05172737 -18 53 C-17.39414062 52.58878906 -16.78828125 52.17757812 -16.1640625 51.75390625 C-1.75552843 40.60009181 2.49197465 21.02602578 5 4 C3.35 3.67 1.7 3.34 0 3 C0 2.01 0 1.02 0 0 Z " transform="translate(304,309)" style="fill: #A9754C;"/><path d="M0 0 C1 3 1 3 1.3125 5.8125 C2.12452875 9.57736057 3.73002388 11.92454848 6 15 C6 10.71 6 6.42 6 2 C6.66 2 7.32 2 8 2 C11.61545891 11.26680732 13.05292616 20.18033969 14 30 C14.66 29.67 15.32 29.34 16 29 C15.43382853 37.30384818 12.15465339 45.44527445 7.125 52.0625 C6.073125 53.5165625 6.073125 53.5165625 5 55 C5.33 55.99 5.66 56.98 6 58 C6.66 58 7.32 58 8 58 C8.25910156 57.28328125 8.51820313 56.5665625 8.78515625 55.828125 C10.06140388 52.85705334 11.62131521 50.42154924 13.4375 47.75 C17.72603416 41.12550752 19.99612056 34.83025964 21 27 C21.33 27 21.66 27 22 27 C22.96663983 40.12482087 19.95882366 50.3380909 11.35546875 60.390625 C9.89263451 61.77678804 9.89263451 61.77678804 10 63 C12.97 61.35 15.94 59.7 19 58 C16.66130194 65.35558262 10.21400399 68.24270285 3.7421875 71.78125 C-4.51621462 76 -4.51621462 76 -7 76 C-8.32 81.61 -9.64 87.22 -11 93 C-9.06125 92.01 -7.1225 91.02 -5.125 90 C0.75 87 0.75 87 3 87 C3.99 88.98 4.98 90.96 6 93 C13.70887763 93.28419825 18.90751099 90.77101358 25.26416016 86.79492188 C29.74589067 84 29.74589067 84 33 84 C27.8873954 107.21974589 16.27585502 128.81018309 1.4375 147.19873047 C0.06420179 148.91955149 -1.24995854 150.67408968 -2.5625 152.44140625 C-8.31320238 159.65743184 -8.31320238 159.65743184 -13.2890625 160.66796875 C-16.28232687 160.68549372 -19.05253819 160.50137237 -22 160 C-22 159.34 -22 158.68 -22 158 C-20.03852126 156.61061923 -18.03833424 155.2739589 -16 154 C-16.639375 154.33 -17.27875 154.66 -17.9375 155 C-20 156 -20 156 -21 156 C-19.91047856 143.92319195 -11.58572055 133.98176225 -4 125 C-2.99054598 123.67380984 -1.98731742 122.34275169 -1 121 C-9.87730192 127.5757792 -17.01775407 134.21862933 -23.125 143.4375 C-23.5576416 144.08799316 -23.9902832 144.73848633 -24.43603516 145.40869141 C-26.26938244 148.20554968 -27.97814898 150.95759659 -29.51171875 153.93359375 C-30.84777991 156.44121606 -31.81539309 158.17564539 -34 160 C-38.37087137 161.02319318 -42.52597652 161.16595043 -47 161 C-46.48050781 160.07960938 -45.96101563 159.15921875 -45.42578125 158.2109375 C-40.6989106 149.68374451 -36.97790197 141.29162682 -34 132 C-33.01 132.66 -32.02 133.32 -31 134 C-26.37684929 130.11958498 -25.08120748 126.77268344 -24.125 121 C-22.74579303 113.82514971 -20.82166044 107.0298811 -18.4375 100.125 C-17.83700947 98.34773398 -17.23674187 96.57039262 -16.63671875 94.79296875 C-15.68677297 91.99223833 -14.71321545 89.20722699 -13.70703125 86.42578125 C-11.06512576 78.17656616 -13.32233671 73.55856586 -17 66 C-21.87281131 53.83339201 -23.06556546 40.62465063 -19 28 C-18.0318067 26.96917425 -17.03066831 25.9683609 -16 25 C-14.22293791 22.33440687 -13.12451727 19.9719385 -12 17 C-11.34 17.66 -10.68 18.32 -10 19 C-9.69707031 18.21496094 -9.39414062 17.42992187 -9.08203125 16.62109375 C-6.62272881 10.45391994 -4.13660494 5.20030336 0 0 Z " transform="translate(370,201)" style="fill: #E5A160;"/><path d="M0 0 C3.31060558 1.65530279 3.88566154 5.25660913 5.125 8.5625 C5.54072266 9.59987305 5.54072266 9.59987305 5.96484375 10.65820312 C7.85204006 15.64579338 8.27558017 19.67411376 8 25 C10.97 23.02 13.94 21.04 17 19 C17.86114943 22.89463992 18.71541795 26.79072042 19.56347656 30.68823242 C19.85262686 32.01253431 20.14361885 33.33643552 20.43652344 34.65991211 C20.85841904 36.56776994 21.27303782 38.4772323 21.6875 40.38671875 C21.93886719 41.53358154 22.19023437 42.68044434 22.44921875 43.86206055 C22.94075081 46.66244242 23.11135406 49.16743108 23 52 C24.65 52.33 26.3 52.66 28 53 C28.67789024 55.35143176 29.34240747 57.70538624 30 60.0625 C30.19078125 60.71927734 30.3815625 61.37605469 30.578125 62.05273438 C31.79596429 66.4674018 32.19227394 70.37941677 32 75 C34.64 75 37.28 75 40 75 C39.95359375 76.09957031 39.9071875 77.19914062 39.859375 78.33203125 C39.446206 92.02873908 42.1973897 100.82059362 49.99121094 112.0690918 C54.84834262 119.08902511 58.92417893 126.50797142 63 134 C60.30011532 135.34994234 58.97456254 134.81773734 56.0625 134.125 C54.74958984 133.85042969 54.74958984 133.85042969 53.41015625 133.5703125 C50.08897405 131.40643042 49.80880691 129.1679729 48.74926758 125.45605469 C47.56788448 121.58355094 45.72000537 118.12089752 43.8125 114.5625 C43.41812744 113.82459229 43.02375488 113.08668457 42.61743164 112.32641602 C37.45822363 102.91006059 30.74882555 95.37787114 23 88 C23.4125 88.62003906 23.825 89.24007812 24.25 89.87890625 C43 118.63169643 43 118.63169643 43 129 C39.74811414 128.38456044 36.49890221 127.75598514 33.25 127.125 C32.32960937 126.95097656 31.40921875 126.77695312 30.4609375 126.59765625 C29.57148438 126.42363281 28.68203125 126.24960937 27.765625 126.0703125 C26.94868164 125.91320801 26.13173828 125.75610352 25.29003906 125.59423828 C21.11422959 124.51066469 19.41748839 123.67658943 17.10546875 119.9296875 C16.44669105 118.58750013 15.80881794 117.23493346 15.1875 115.875 C14.67582275 114.76185425 14.67582275 114.76185425 14.15380859 113.6262207 C6.85191281 97.0627664 2.97709648 80.02643296 2 62 C1.65409319 81.7619222 2.52628398 100.46869914 11.75390625 118.41015625 C12.16511719 119.26480469 12.57632813 120.11945313 13 121 C12.67 121.66 12.34 122.32 12 123 C6.12864898 113.54060114 0.63194293 103.99559214 -4.10205078 93.91162109 C-4.92549108 92.15862014 -5.77217086 90.41658457 -6.62109375 88.67578125 C-14.27234916 71.56479188 -18.59366335 50.74030056 -17 32 C-16.34 32 -15.68 32 -15 32 C-14.72744385 31.13415283 -14.4548877 30.26830566 -14.17407227 29.3762207 C-13.03934268 26.11313578 -11.71225432 23.09173585 -10.21484375 19.98046875 C-9.68439453 18.87638672 -9.15394531 17.77230469 -8.60742188 16.63476562 C-8.05634766 15.49716797 -7.50527344 14.35957031 -6.9375 13.1875 C-6.38255859 12.03056641 -5.82761719 10.87363281 -5.25585938 9.68164062 C-1.13616957 1.13616957 -1.13616957 1.13616957 0 0 Z " transform="translate(112,215)" style="fill: #E7A361;"/><path d="M0 0 C9.25787683 -0.24109054 17.68210293 3.36794392 26.25 6.50390625 C25.80814037 7.93328527 25.35711565 9.35983283 24.90234375 10.78515625 C24.52710571 11.9772168 24.52710571 11.9772168 24.14428711 13.19335938 C18.92368508 26.68169615 0.57319287 34.73916836 -11.75 40.50390625 C-14.98429209 41.87360107 -18.22211413 43.14932824 -21.52734375 44.3359375 C-23.34698989 44.99542137 -25.16030815 45.67573106 -26.94555664 46.42333984 C-37.50717191 50.84331139 -48.58793199 53.10264912 -59.75 55.50390625 C-60.74451172 55.72143555 -61.73902344 55.93896484 -62.76367188 56.16308594 C-76.2602437 59.0137722 -89.49988199 59.86929389 -103.25 59.87890625 C-103.99641754 59.88090027 -104.74283508 59.88289429 -105.51187134 59.88494873 C-119.16216099 59.88080926 -132.94969855 59.11453603 -146.1875 55.56640625 C-146.84379395 55.39093262 -147.50008789 55.21545898 -148.17626953 55.03466797 C-150.03659723 54.53329981 -151.89344133 54.01905583 -153.75 53.50390625 C-154.69746094 53.26800781 -155.64492187 53.03210938 -156.62109375 52.7890625 C-163.02536914 51.1005718 -168.23285329 48.13113675 -173.75 44.50390625 C-173.25168276 40.81635868 -172.64932357 38.89899963 -169.75 36.50390625 C-168.574375 36.89578125 -167.39875 37.28765625 -166.1875 37.69140625 C-165.35347656 37.9646875 -164.51945313 38.23796875 -163.66015625 38.51953125 C-161.63536666 39.20442652 -159.62279395 39.9260808 -157.62109375 40.67578125 C-132.94380371 49.60923597 -105.52099894 51.36287741 -79.75 46.50390625 C-78.58726562 46.32085937 -77.42453125 46.1378125 -76.2265625 45.94921875 C-56.54253767 42.54963237 -32.1790432 34.64876149 -16.75 21.50390625 C-16.42 20.84390625 -16.09 20.18390625 -15.75 19.50390625 C-17.4 19.50390625 -19.05 19.50390625 -20.75 19.50390625 C-18.01870814 16.68984797 -15.24659201 14.03494458 -12.25 11.50390625 C-8.6927166 8.48912794 -3.97668791 1.14507308 0 0 Z " transform="translate(357.75,368.49609375)" style="fill: #D5A26E;"/><path d="M0 0 C4.86872054 0.59559106 8.59328841 2.72477415 12.8125 5.0625 C13.50537109 5.43955078 14.19824219 5.81660156 14.91210938 6.20507812 C16.61128985 7.13083852 18.30609425 8.06462312 20 9 C19.54882812 9.64066406 19.09765625 10.28132812 18.6328125 10.94140625 C16.5499236 14.84308571 15.75420256 18.62940745 14.875 22.9375 C14.70613281 23.72318359 14.53726563 24.50886719 14.36328125 25.31835938 C12.79615955 32.6912351 11.80369223 39.84704824 11.4375 47.375 C11.37272461 48.62216797 11.37272461 48.62216797 11.30664062 49.89453125 C11.20138195 51.92953228 11.10026928 53.96474703 11 56 C8.03 55.505 8.03 55.505 5 55 C5.86625 55.495 6.7325 55.99 7.625 56.5 C11.11803001 58.80671793 13.21852773 61.72763398 15.625 65.10546875 C17.81696907 68.1256534 20.23433859 70.44702232 23.25 72.625 C23.8275 73.07875 24.405 73.5325 25 74 C25 74.66 25 75.32 25 76 C24.01 76.495 24.01 76.495 23 77 C23.825 77.78375 24.65 78.5675 25.5 79.375 C28 82 28 82 28 84 C26.02 84 24.04 84 22 84 C22.66 85.98 23.32 87.96 24 90 C20.66666667 90 17.33333333 90 14 90 C12.33259485 90.66481749 10.66596731 91.33158759 9 92 C-1.1434345 93.64317319 -7.80103712 89.53971941 -15.9375 84 C-22.75221377 77.39179271 -25.16587665 70.05194965 -25.375 60.8125 C-24.82327514 39.29523049 -13.82073547 16.38834917 0 0 Z " transform="translate(184,238)" style="fill: #DF9854;"/><path d="M0 0 C3.91827795 1.55435819 4.55338725 4.25067889 6.36328125 7.9375 C6.69328125 6.9475 7.02328125 5.9575 7.36328125 4.9375 C11.85676479 1.89779055 17.16484028 2.41990631 22.36328125 2.9375 C26.05078125 4.4375 26.05078125 4.4375 28.36328125 5.9375 C29.35328125 4.2875 30.34328125 2.6375 31.36328125 0.9375 C37.58431107 3.76271041 43.48058784 8.66340257 46.36328125 14.9375 C48.85724353 23.35237994 47.67030415 31.14629782 44.03125 39.015625 C37.97936634 49.61705118 28.14606601 57.60305207 16.36328125 60.9375 C7.90467763 60.9375 0.15373621 55.27167045 -5.97265625 49.76953125 C-14.20660898 40.70445183 -17.21656014 31.65223548 -17.00390625 19.56640625 C-16.48828855 14.47056747 -15.11830563 11.62010229 -11.63671875 7.9375 C-10.92386719 7.18210938 -10.21101562 6.42671875 -9.4765625 5.6484375 C-3.57589837 -0.08476204 -3.57589837 -0.08476204 0 0 Z " transform="translate(237.63671875,189.0625)" style="fill: #FBF4DE;"/><path d="M0 0 C-5.1126046 23.21974589 -16.72414498 44.81018309 -31.5625 63.19873047 C-32.93579821 64.91955149 -34.24995854 66.67408968 -35.5625 68.44140625 C-41.31320238 75.65743184 -41.31320238 75.65743184 -46.2890625 76.66796875 C-49.28232687 76.68549372 -52.05253819 76.50137237 -55 76 C-55 75.34 -55 74.68 -55 74 C-53.03852126 72.61061923 -51.03833424 71.2739589 -49 70 C-49.9590625 70.495 -49.9590625 70.495 -50.9375 71 C-53 72 -53 72 -54 72 C-52.91047856 59.92319195 -44.58572055 49.98176225 -37 41 C-35.99054598 39.67380984 -34.98731742 38.34275169 -34 37 C-43.00841178 43.67289761 -50.5457467 50.80757863 -57 60 C-58.47485337 56.09597637 -57.50659599 53.25767383 -56.4375 49.3125 C-56.06061102 47.89242708 -55.68575571 46.47181348 -55.3125 45.05078125 C-55.10367187 44.26010254 -54.89484375 43.46942383 -54.6796875 42.65478516 C-53.91486607 39.66747617 -53.20357703 36.67028628 -52.5 33.66796875 C-52.24162354 32.56735107 -51.98324707 31.4667334 -51.71704102 30.33276367 C-51.20650658 28.15008107 -50.69906392 25.96667244 -50.19506836 23.7824707 C-48.82827753 17.98948932 -47.23522247 12.51841274 -45 7 C-44.67 7.66 -44.34 8.32 -44 9 C-42.73542969 8.3503125 -42.73542969 8.3503125 -41.4453125 7.6875 C-40.34960938 7.130625 -39.25390625 6.57375 -38.125 6 C-37.03445313 5.443125 -35.94390625 4.88625 -34.8203125 4.3125 C-32 3 -32 3 -30 3 C-29.01 4.98 -28.02 6.96 -27 9 C-19.29112237 9.28419825 -14.09248901 6.77101358 -7.73583984 2.79492188 C-3.25410933 0 -3.25410933 0 0 0 Z " transform="translate(403,285)" style="fill: #E7A360;"/><path d="M0 0 C11.4481034 12.28108107 27.48367792 32.92678802 27.28125 50.234375 C26.67088375 56.23630982 24.39411969 61.2290912 20.6875 65.9375 C15.30518431 70.06811437 10.75391056 71.41350473 4 71 C4 67.42424104 5.08840607 65.94704065 7 63 C6.34 63 5.68 63 5 63 C4.67 63.99 4.34 64.98 4 66 C1.9375 66.6875 1.9375 66.6875 0 67 C0 66.01 0 65.02 0 64 C-0.94875 64.495 -1.8975 64.99 -2.875 65.5 C-6 67 -6 67 -8 67 C-7.42415568 64.61435923 -6.77772405 62.33317216 -6 60 C-7.32 60 -8.64 60 -10 60 C-10.375 57.25 -10.375 57.25 -10 54 C-7.25 51.9375 -7.25 51.9375 -4 50 C-3.01 48.7315625 -3.01 48.7315625 -2 47.4375 C1.38677171 43.30987198 5.21121363 41.97850072 10.375 41.3125 C12.169375 41.1578125 12.169375 41.1578125 14 41 C4.96940924 40.35416892 4.96940924 40.35416892 -3.5625 42.6875 C-7.34870516 46.27600748 -7.34870516 46.27600748 -11 50 C-11.08636719 49.33097656 -11.17273438 48.66195312 -11.26171875 47.97265625 C-12.52259433 39.3547452 -14.84378756 31.24166228 -17.40820312 22.94433594 C-18.44321112 19.54383937 -19.38066883 16.11438069 -20.32421875 12.6875 C-20.86756805 10.789522 -20.86756805 10.789522 -23 10 C-22.39414062 9.78085938 -21.78828125 9.56171875 -21.1640625 9.3359375 C-15.391801 7.15135853 -10.30789643 4.53032128 -5.12890625 1.171875 C-3 0 -3 0 0 0 Z " transform="translate(315,238)" style="fill: #DD9653;"/><path d="M0 0 C16.11576794 0.55190986 34.4604103 4.73020515 49 12 C49 12.66 49 13.32 49 14 C48.34 14 47.68 14 47 14 C49.74796153 17.35518899 53.48045198 18.82242775 57.3125 20.625 C65.31422573 24.49898175 72.62877612 29.03608721 80 34 C80.57073242 34.36931641 81.14146484 34.73863281 81.72949219 35.11914062 C83.16952979 36.05444884 84.58712692 37.02414171 86 38 C86 38.33 86 38.66 86 39 C84.87851563 39.25394531 83.75703125 39.50789063 82.6015625 39.76953125 C76.83402328 41.2082415 71.38871188 43.46258723 65.890625 45.69726562 C61.20629855 47.50848831 57.95274373 48.65317301 53 47 C50.53723581 45.76156532 48.26658208 44.51153704 45.9375 43.0625 C45.28410645 42.66135986 44.63071289 42.26021973 43.95751953 41.84692383 C29.37337381 32.72521002 16.42017806 21.38390713 5.1875 8.375 C4.66534912 7.77075195 4.14319824 7.16650391 3.60522461 6.54394531 C0 2.25956424 0 2.25956424 0 0 Z " transform="translate(131,348)" style="fill: #E29C58;"/><path d="M0 0 C2.97 0.495 2.97 0.495 6 1 C6 1.66 6 2.32 6 3 C7.11375 3.185625 7.11375 3.185625 8.25 3.375 C11 4 11 4 12.859375 5.02734375 C15.40312076 6.18316983 17.21755738 6.23415681 20 6.1875 C20.845625 6.18105469 21.69125 6.17460937 22.5625 6.16796875 C24.83252477 6.01154076 26.81961604 5.63089814 29 5 C28.39746942 18.34605235 23.94393036 35.70092868 15 46 C10.40762996 47.95463173 6.33873939 48.29757894 1.375 48.3125 C0.08335937 48.32925781 -1.20828125 48.34601563 -2.5390625 48.36328125 C-6.10032468 47.98946931 -7.46289477 47.44051493 -10 45 C-9.63648438 44.52433594 -9.27296875 44.04867187 -8.8984375 43.55859375 C-0.2290263 31.48810585 2.98479919 18.44227244 5 4 C3.35 3.67 1.7 3.34 0 3 C0 2.01 0 1.02 0 0 Z " transform="translate(304,309)" style="fill: #DF9956;"/><path d="M0 0 C0.03440186 0.71953857 0.06880371 1.43907715 0.10424805 2.18041992 C0.80774283 21.21761751 0.80774283 21.21761751 7 39 C8.32 35.7 9.64 32.4 11 29 C12 33 12 33 12 36 C12.99 34.35 13.98 32.7 15 31 C15.66 31.33 16.32 31.66 17 32 C16.66226563 32.61746094 16.32453125 33.23492187 15.9765625 33.87109375 C13.4424041 38.68306505 11.58497097 43.00147574 10.5859375 48.3359375 C9.8078113 51.87381795 8.72070374 55.30080243 7.625 58.75 C7.29435547 59.79800781 7.29435547 59.79800781 6.95703125 60.8671875 C5.97545356 63.96690651 4.97994227 67.06077644 3.9609375 70.1484375 C1.42293282 78.01006175 -0.42302755 85.96809556 -2.20385742 94.02758789 C-3.46076972 99.70556753 -4.82083219 105.31355518 -6.51953125 110.87890625 C-7.11425115 113.01269683 -7.11425115 113.01269683 -6.8125 115.29296875 C-7.25726553 121.71427105 -12.30187309 128.76723326 -17 133 C-21.49027124 134.51318691 -25.32254955 134.57918274 -30 134 C-29.48050781 133.07960938 -28.96101563 132.15921875 -28.42578125 131.2109375 C-23.6989106 122.68374451 -19.97790197 114.29162682 -17 105 C-16.01 105.66 -15.02 106.32 -14 107 C-9.37684929 103.11958498 -8.08120748 99.77268344 -7.125 94 C-5.74579303 86.82514971 -3.82166044 80.0298811 -1.4375 73.125 C-0.83700947 71.34773398 -0.23674187 69.57039262 0.36328125 67.79296875 C1.31322703 64.99223833 2.28678455 62.20722699 3.29296875 59.42578125 C5.93487424 51.17656616 3.67766329 46.55856586 0 39 C-4.9559585 26.62578715 -5.83317971 13.85242609 -2 1 C-1 0 -1 0 0 0 Z " transform="translate(353,228)" style="fill: #B87F52;"/><path d="M0 0 C2.713829 0.67845725 4.63408614 1.51166315 6.55078125 3.59765625 C8.81143185 8.42595938 8.23821087 14.46367568 7.5 19.625 C5.96875 22.05859375 5.96875 22.05859375 4.5 23.625 C-1.86734694 23.25765306 -1.86734694 23.25765306 -4.875 20.25 C-7.77697811 15.56218921 -8.341538 11.02408086 -7.5 5.625 C-5.21692547 2.42869565 -3.82396672 0.95599168 0 0 Z " transform="translate(283.5,167.375)" style="fill: #081629;"/><path d="M0 0 C2.43028072 0.66280383 4.2010972 1.2010972 6 3 C12.3149985 3.41453713 12.3149985 3.41453713 18 1 C16.86209024 4.41372928 15.37723944 5.42100535 12.625 7.59765625 C10.9592009 9.03520884 9.62896114 10.53861073 8.25 12.25 C5.56265424 15.5345337 4.96213228 15.86794263 0.8125 16.4375 C-4.1329448 15.86998994 -6.80306345 13.7508131 -10 10 C-10 9.34 -10 8.68 -10 8 C-10.598125 7.731875 -11.19625 7.46375 -11.8125 7.1875 C-13.97224808 6.01506533 -15.35790256 4.80630718 -17 3 C-16.67 2.34 -16.34 1.68 -16 1 C-14.515 1.99 -14.515 1.99 -13 3 C-7.34981449 3.52370644 -7.34981449 3.52370644 -2.3125 1.375 C-1.549375 0.92125 -0.78625 0.4675 0 0 Z " transform="translate(254,220)" style="fill: #1A2530;"/><path d="M0 0 C0 1.32 0 2.64 0 4 C-1.32 4.33 -2.64 4.66 -4 5 C-4 6.32 -4 7.64 -4 9 C-1.36 9.33 1.28 9.66 4 10 C5.00570979 13.19998568 5.21864753 14.54084019 3.75 17.625 C3.1725 18.40875 2.595 19.1925 2 20 C1.5875 20.598125 1.175 21.19625 0.75 21.8125 C-2.24953871 23.84790127 -4.50712808 23.55150609 -8 23 C-11.22948875 19.77051125 -12.26603595 16.96041132 -12.5 12.5 C-12.29790029 8.06129162 -10.91173051 5.41088431 -8 2 C-4.77208445 -0.1519437 -3.71599191 -0.20086443 0 0 Z " transform="translate(224,168)" style="fill: #0A1729;"/><path d="M0 0 C0 0.33 0 0.66 0 1 C-0.66 1.18433594 -1.32 1.36867188 -2 1.55859375 C-9.79973269 3.84367169 -17.34689137 6.6031807 -24.9375 9.5 C-37.48362679 14.26220254 -49.65466917 18.14240816 -63 20 C-62.67 19.01 -62.34 18.02 -62 17 C-59.7632755 15.92340232 -57.64566304 15.06448805 -55.3125 14.25 C-54.60988037 13.99686035 -53.90726074 13.7437207 -53.18334961 13.48291016 C-40.49043158 8.97468384 -27.66302094 4.72393836 -14.5625 1.5625 C-13.56198608 1.31669189 -13.56198608 1.31669189 -12.54125977 1.06591797 C-8.29940324 0.09656738 -4.34203652 -0.14006569 0 0 Z " transform="translate(339,388)" style="fill: #AA774C;"/><path d="M0 0 C1.28947482 2.98615222 0.9306671 4.21883983 -0.07421875 7.390625 C-0.59959067 8.68219213 -1.13799661 9.96851362 -1.6875 11.25 C-1.9649707 11.91878174 -2.24244141 12.58756348 -2.52832031 13.27661133 C-4.49278793 17.95844073 -6.62764123 22.50946375 -9 27 C-9.26039063 27.71285156 -9.52078125 28.42570312 -9.7890625 29.16015625 C-11 31 -11 31 -13.3828125 31.609375 C-14.28773438 31.65578125 -15.19265625 31.7021875 -16.125 31.75 C-17.03507812 31.80671875 -17.94515625 31.8634375 -18.8828125 31.921875 C-19.58148438 31.94765625 -20.28015625 31.9734375 -21 32 C-20.22076172 30.61941406 -20.22076172 30.61941406 -19.42578125 29.2109375 C-14.6989106 20.68374451 -10.97790197 12.29162682 -8 3 C-7.01 3.66 -6.02 4.32 -5 5 C-3.35 3.35 -1.7 1.7 0 0 Z " transform="translate(344,330)" style="fill: #D4A06A;"/><path d="M0 0 C0.80179687 0.00451172 1.60359375 0.00902344 2.4296875 0.01367188 C4.41149006 0.02546832 6.39325433 0.04340395 8.375 0.0625 C9.01953125 2.390625 9.01953125 2.390625 9.375 5.0625 C6.4038377 8.59577408 4.23992735 10.80819172 -0.375 11.4375 C-4.80115785 10.92678948 -6.58348124 9.24548475 -9.625 6.0625 C-10.5 3.25 -10.5 3.25 -10.625 1.0625 C-7.31505287 -0.59247356 -3.63377 -0.03834335 0 0 Z " transform="translate(255.625,197.9375)" style="fill: #09182A;"/><path d="M0 0 C1.28165401 3.6213177 0.69558342 6.0326004 -0.3125 9.6875 C-0.59351563 10.75097656 -0.87453125 11.81445312 -1.1640625 12.91015625 C-1.43992187 13.92980469 -1.71578125 14.94945312 -2 16 C-3.49544436 21.61242069 -4.1981434 26.62186181 -3.97265625 32.4453125 C-4.05149714 39.81130412 -5.88562617 44.08298221 -10.0625 49.9375 C-10.53494141 50.62134766 -11.00738281 51.30519531 -11.49414062 52.00976562 C-12.65127744 53.68118547 -13.82407081 55.34174777 -15 57 C-15.99 56.67 -16.98 56.34 -18 56 C-10.08495552 36.01340725 -10.08495552 36.01340725 -7.97265625 32.09350586 C-6.96734178 29.92970778 -6.5892232 28.19774885 -6.2890625 25.83984375 C-6.18053955 25.0506958 -6.0720166 24.26154785 -5.96020508 23.44848633 C-5.8495874 22.61986084 -5.73896973 21.79123535 -5.625 20.9375 C-4.56640993 13.57086358 -3.03050407 6.84555487 0 0 Z " transform="translate(351,304)" style="fill: #D79A5E;"/><path d="M0 0 C0.66 0 1.32 0 2 0 C5.75645984 9.30730004 8.44584958 18.60947228 4.71875 28.34765625 C3.25058527 31.3091748 1.6776236 34.15325529 0 37 C-0.67816616 38.32752133 -1.34979674 39.65856124 -2 41 C-1.85704109 39.60386935 -1.71048442 38.20810692 -1.5625 36.8125 C-1.48128906 36.03519531 -1.40007812 35.25789063 -1.31640625 34.45703125 C-1 32 -1 32 -0.48632812 29.74609375 C0.06269109 26.64600932 0.11257609 23.75355578 0.09765625 20.60546875 C0.09443359 19.40341797 0.09121094 18.20136719 0.08789062 16.96289062 C0.07951172 15.71701172 0.07113281 14.47113281 0.0625 13.1875 C0.05798828 11.92228516 0.05347656 10.65707031 0.04882812 9.35351562 C0.03706251 6.2356289 0.02062272 3.11783867 0 0 Z " transform="translate(376,203)" style="fill: #D99F67;"/><path d="M0 0 C-0.54175318 5.35864558 -1.50150199 10.00123683 -3.25 15.125 C-5.79407489 22.82276948 -7.60447582 30.62561424 -9.29980469 38.54931641 C-10.23441647 42.86859133 -11.13865307 46.96283201 -13 51 C-13.33 51 -13.66 51 -14 51 C-13.28626528 42.86342419 -11.66189336 34.98987193 -10 27 C-9.773125 25.7934375 -9.54625 24.586875 -9.3125 23.34375 C-4.76769912 0 -4.76769912 0 0 0 Z " transform="translate(360,284)" style="fill: #C9844D;"/><path d="M0 0 C4.34482759 1.34482759 4.34482759 1.34482759 6 3 C12.3149985 3.41453713 12.3149985 3.41453713 18 1 C16.66667905 4.99996286 14.5042173 5.83782337 11 8 C11 7.01 11 6.02 11 5 C10.01 5 9.02 5 8 5 C8 6.32 8 7.64 8 9 C4.59575912 11.09491746 1.96585158 11.49573145 -2 11 C-4.375 9 -4.375 9 -6 7 C-5.01 6.34 -4.02 5.68 -3 5 C-3 4.01 -3 3.02 -3 2 C-2.01 1.34 -1.02 0.68 0 0 Z " transform="translate(254,220)" style="fill: #0A1829;"/><path d="M0 0 C0.92683594 -0.00515625 1.85367187 -0.0103125 2.80859375 -0.015625 C5.72304176 0.26548488 7.91140497 1.03752097 10.5625 2.25 C10.5625 3.57 10.5625 4.89 10.5625 6.25 C3.9625 6.25 -2.6375 6.25 -9.4375 6.25 C-9.4375 4.93 -9.4375 3.61 -9.4375 2.25 C-6.1939127 0.32674353 -3.75076483 -0.02080868 0 0 Z " transform="translate(254.4375,191.75)" style="fill: #EFEDEA;"/><path d="M0 0 C6.01960444 0.30098022 9.7207175 3.01907385 14 7 C15.70695993 9.02654494 17.2634958 11.08928445 18.7734375 13.265625 C20.02184397 15.13453464 20.02184397 15.13453464 22 17 C21.34 17 20.68 17 20 17 C19.67 17.66 19.34 18.32 19 19 C14.81439738 16.70788428 12.58362369 14.63978898 10.0625 10.5625 C7.28090805 6.08391561 4.41174067 3.82351403 0 1 C0 0.67 0 0.34 0 0 Z " transform="translate(188,292)" style="fill: #141D27;"/><path d="M0 0 C0.66 0.33 1.32 0.66 2 1 C2 1.66 2 2.32 2 3 C-0.34034223 3.69343473 -2.04238078 3.99682144 -4.5 3.8125 C-7.11084661 3.77854973 -7.11084661 3.77854973 -9.109375 5.62109375 C-11.4851731 8.61047607 -11.58569502 10.47098555 -11.75 14.25 C-11.80671875 15.32765625 -11.8634375 16.4053125 -11.921875 17.515625 C-11.94765625 18.33546875 -11.9734375 19.1553125 -12 20 C-15 19 -15 19 -16 17 C-16.55004295 11.27955337 -15.64364029 8.43145441 -12 4 C-8.10245014 -0.00288904 -5.52928197 -0.52163037 0 0 Z " transform="translate(206,137)" style="fill: #B37845;"/><path d="M0 0 C0.33 0 0.66 0 1 0 C1.47812036 8.35382515 1.54625686 16.64741174 -3 24 C-4.96875 24.66796875 -4.96875 24.66796875 -7 25 C-8.7074998 26.28062485 -10.38263741 27.6072711 -12 29 C-10.54625248 25.96034609 -8.86337025 23.15814994 -7.0625 20.3125 C-3.16631015 13.86002949 -0.95980275 7.48646146 0 0 Z " transform="translate(391,228)" style="fill: #E6A362;"/><path d="M0 0 C2.97 0.495 2.97 0.495 6 1 C6 1.66 6 2.32 6 3 C7.11375 3.185625 7.11375 3.185625 8.25 3.375 C11 4 11 4 12.78125 5.03125 C15.70575564 6.30814683 18.07322367 6.19406035 21.25 6.125 C22.86648438 6.09792969 22.86648438 6.09792969 24.515625 6.0703125 C25.33546875 6.04710937 26.1553125 6.02390625 27 6 C26.67 6.66 26.34 7.32 26 8 C19.28437839 9.22102211 11.55284688 10.18428229 5 8 C5 6.68 5 5.36 5 4 C3.35 3.67 1.7 3.34 0 3 C0 2.01 0 1.02 0 0 Z " transform="translate(304,309)" style="fill: #AB774D;"/><path d="M0 0 C0.33 0.99 0.66 1.98 1 3 C-2.32163266 4.69089148 -5.65651128 6.35276802 -9 8 C-9.65226562 8.33 -10.30453125 8.66 -10.9765625 9 C-15.10635834 10.96118159 -18.46370701 11.27773222 -23 11 C-22.41806885 10.71463379 -21.8361377 10.42926758 -21.23657227 10.13525391 C-19.18633488 9.09458107 -17.20188237 7.99163554 -15.21484375 6.8359375 C-14.51939453 6.43632812 -13.82394531 6.03671875 -13.10742188 5.625 C-11.65448921 4.78802709 -10.20397745 3.94683822 -8.75585938 3.1015625 C-8.06169922 2.70453125 -7.36753906 2.3075 -6.65234375 1.8984375 C-6.02320068 1.53411621 -5.39405762 1.16979492 -4.74584961 0.79443359 C-3 0 -3 0 0 0 Z " transform="translate(315,238)" style="fill: #AB7649;"/><path d="M0 0 C3.875 1.875 3.875 1.875 5 3 C5.04092937 5.33297433 5.04241723 7.66705225 5 10 C2.03 9.67 -0.94 9.34 -4 9 C-4.33 7.35 -4.66 5.7 -5 4 C-3.35 3.67 -1.7 3.34 0 3 C0 2.01 0 1.02 0 0 Z " transform="translate(224,169)" style="fill: #212B37;"/><path d="M0 0 C7.76785714 -0.66964286 7.76785714 -0.66964286 11.375 2.25 C14.22905938 5.23996696 15.85142751 7.20524427 16.1953125 11.359375 C16.17210937 12.14828125 16.14890625 12.9371875 16.125 13.75 C16.10695313 14.54921875 16.08890625 15.3484375 16.0703125 16.171875 C16.04710937 16.77515625 16.02390625 17.3784375 16 18 C15.01 18 14.02 18 13 18 C12.98582031 17.40832031 12.97164063 16.81664062 12.95703125 16.20703125 C12.68432144 11.68889307 12.54683565 9.61352293 9.4375 6.125 C8.633125 5.42375 7.82875 4.7225 7 4 C7 3.01 7 2.02 7 1 C4.69 1 2.38 1 0 1 C0 0.67 0 0.34 0 0 Z " transform="translate(289,137)" style="fill: #B97D47;"/><path d="M0 0 C0.33 0 0.66 0 1 0 C1.97786497 3.64428365 2.33117342 5.35931027 0.56640625 8.7734375 C-0.09488281 9.63195312 -0.75617188 10.49046875 -1.4375 11.375 C-2.09621094 12.24898438 -2.75492187 13.12296875 -3.43359375 14.0234375 C-3.95050781 14.67570312 -4.46742188 15.32796875 -5 16 C-5.99 15.67 -6.98 15.34 -8 15 C-4.05594406 4.1958042 -4.05594406 4.1958042 0 0 Z " transform="translate(341,345)" style="fill: #BB8051;"/><path d="M0 0 C0.66 0.33 1.32 0.66 2 1 C-3.94 6.94 -9.88 12.88 -16 19 C-16.99 18.67 -17.98 18.34 -19 18 C-16.21238985 15.18345426 -13.41924204 12.37246527 -10.625 9.5625 C-9.8309375 8.76005859 -9.036875 7.95761719 -8.21875 7.13085938 C-7.45820313 6.36708984 -6.69765625 5.60332031 -5.9140625 4.81640625 C-4.8614624 3.75595093 -4.8614624 3.75595093 -3.78759766 2.67407227 C-2 1 -2 1 0 0 Z " transform="translate(153,116)" style="fill: #EDE8D5;"/><path d="M0 0 C0.66 0.33 1.32 0.66 2 1 C1 4 1 4 -1 5 C-3.875 5.3125 -3.875 5.3125 -7 5 C-9.375 3 -9.375 3 -11 1 C-7.22482858 -1.56711656 -4.33016827 -0.88207131 0 0 Z " transform="translate(259,226)" style="fill: #E7E9E8;"/><path d="M0 0 C5.4 0.6 5.4 0.6 7.875 2.25 C9.37422891 4.58213386 9.22023906 6.28371825 9 9 C7 7.625 7 7.625 5 6 C5 5.34 5 4.68 5 4 C3.02 4.33 1.04 4.66 -1 5 C-0.67 3.35 -0.34 1.7 0 0 Z " transform="translate(208,353)" style="fill: #17181C;"/><path d="M0 0 C6.435 2.97 6.435 2.97 13 6 C12.01 6.66 11.02 7.32 10 8 C7.30078125 7.3203125 7.30078125 7.3203125 4.3125 6.125 C2.82169922 5.54105469 2.82169922 5.54105469 1.30078125 4.9453125 C0.54152344 4.63335937 -0.21773437 4.32140625 -1 4 C-0.67 2.68 -0.34 1.36 0 0 Z " transform="translate(191,241)" style="fill: #B9814E;"/><path d="M0 0 C2.14413657 3.21620485 3.66081546 6.53136846 5.1875 10.0625 C5.47302734 10.69994141 5.75855469 11.33738281 6.05273438 11.99414062 C6.76427903 13.63709898 7.38897327 15.31706973 8 17 C7.67 17.66 7.34 18.32 7 19 C5.43815812 16.59440447 3.90101638 14.17816136 2.375 11.75 C1.70597656 10.72712891 1.70597656 10.72712891 1.0234375 9.68359375 C-0.14068892 7.81007779 -1.19671967 6.05501069 -2 4 C-1.2734375 1.515625 -1.2734375 1.515625 0 0 Z " transform="translate(117,319)" style="fill: #C88C58;"/><path d="M0 0 C-2.93153339 3.68805814 -5.06658788 5.34125328 -9.6875 5.9375 C-12.01171875 6.15234375 -12.01171875 6.15234375 -14 6 C-14.66 5.34 -15.32 4.68 -16 4 C-13.71144298 3.13656269 -11.4198072 2.2840189 -9.125 1.4375 C-8.47402344 1.19064453 -7.82304687 0.94378906 -7.15234375 0.68945312 C-2.2265625 -1.11328125 -2.2265625 -1.11328125 0 0 Z " transform="translate(282,367)" style="fill: #A27857;"/><path d="M0 0 C0.99 0 1.98 0 3 0 C2.6814443 3.50411265 2.30932553 5.5840105 0.1875 8.4375 C-2 10 -2 10 -4.25 9.75 C-5.11625 9.37875 -5.11625 9.37875 -6 9 C-5.25 7.0625 -5.25 7.0625 -4 5 C-1.875 4.25 -1.875 4.25 0 4 C0 2.68 0 1.36 0 0 Z " transform="translate(262,225)" style="fill: #091423;"/><path d="M0 0 C1 3 1 3 1 5 C-0.74468372 5.70088156 -2.49601161 6.38524009 -4.25 7.0625 C-5.22453125 7.44535156 -6.1990625 7.82820312 -7.203125 8.22265625 C-10.04007395 9.01113787 -11.29409552 9.02437812 -14 8 C-13.24074219 7.59007812 -12.48148437 7.18015625 -11.69921875 6.7578125 C-10.70535156 6.21898437 -9.71148437 5.68015625 -8.6875 5.125 C-7.20830078 4.32449219 -7.20830078 4.32449219 -5.69921875 3.5078125 C-2.90413542 1.99277874 -2.90413542 1.99277874 0 0 Z " transform="translate(295,243)" style="fill: #242428;"/><path d="M0 0 C3.52922225 0.81928374 4.23644079 1.2521937 6.5 3.8125 C5.75234375 3.77769531 5.0046875 3.74289063 4.234375 3.70703125 C3.24953125 3.67996094 2.2646875 3.65289062 1.25 3.625 C0.27546875 3.59019531 -0.6990625 3.55539063 -1.703125 3.51953125 C-4.87468742 3.85174798 -6.17040307 4.69922279 -8.5 6.8125 C-6.82001137 1.90176401 -5.6140613 -0.30075328 0 0 Z " transform="translate(220.5,158.1875)" style="fill: #33291E;"/><path d="M0 0 C0.66 0.33 1.32 0.66 2 1 C2 1.66 2 2.32 2 3 C-0.99480917 3.8723412 -3.63575911 4.10829766 -6.75 4.0625 C-7.54921875 4.05347656 -8.3484375 4.04445312 -9.171875 4.03515625 C-9.77515625 4.02355469 -10.3784375 4.01195312 -11 4 C-7.6617906 -0.27290803 -5.29407283 -0.49019193 0 0 Z " transform="translate(206,137)" style="fill: #C9874B;"/><path d="M0 0 C0.99 0.66 1.98 1.32 3 2 C1.34832443 5.5786304 -0.78286492 8.74820188 -3 12 C-4.1484375 10.265625 -4.1484375 10.265625 -5 8 C-4.1015625 5.859375 -4.1015625 5.859375 -2.625 3.75 C-2.14289063 3.04359375 -1.66078125 2.3371875 -1.1640625 1.609375 C-0.77992188 1.07828125 -0.39578125 0.5471875 0 0 Z " transform="translate(344,347)" style="fill: #5F4838;"/><path d="M0 0 C4.13621084 3.3810038 7.81316569 6.66590534 11 11 C10.34 11 9.68 11 9 11 C8.67 11.99 8.34 12.98 8 14 C6.85018626 12.23174858 5.70528078 10.46030479 4.5625 8.6875 C3.92441406 7.70136719 3.28632813 6.71523438 2.62890625 5.69921875 C1 3 1 3 0 0 Z " transform="translate(134,302)" style="fill: #3A2F2A;"/><path d="M0 0 C4.13872839 1.16174832 5.28359905 2.44491451 7.5625 6 C4.5625 6 4.5625 6 2.5625 4 C0.35999008 3.53993654 0.35999008 3.53993654 -2.0625 3.375 C-3.28839844 3.26285156 -3.28839844 3.26285156 -4.5390625 3.1484375 C-5.16554688 3.09945312 -5.79203125 3.05046875 -6.4375 3 C-4.09781481 0.26918202 -3.84425297 0 0 0 Z " transform="translate(284.4375,158)" style="fill: #372B1F;"/><path d="M0 0 C1.25296875 0.23203125 2.5059375 0.4640625 3.796875 0.703125 C5.69179688 1.03570312 5.69179688 1.03570312 7.625 1.375 C9.07132812 1.66117187 9.07132812 1.66117187 10.546875 1.953125 C10.546875 2.283125 10.546875 2.613125 10.546875 2.953125 C9.81082031 3.01371094 9.07476562 3.07429688 8.31640625 3.13671875 C7.34058594 3.22050781 6.36476563 3.30429687 5.359375 3.390625 C4.39644531 3.47183594 3.43351562 3.55304688 2.44140625 3.63671875 C-0.44334929 3.90040053 -0.44334929 3.90040053 -3.19140625 4.55078125 C-5.453125 4.953125 -5.453125 4.953125 -7.453125 3.953125 C-5.01580984 0.7279908 -4.14102436 -0.056213 0 0 Z " transform="translate(297.453125,355.046875)" style="fill: #BB804F;"/><path d="M0 0 C4.99911924 0.47610659 7.97832683 2.03162219 12 5 C11.67 5.99 11.34 6.98 11 8 C6.99698968 6.23867546 3.3971023 3.73867517 0 1 C0 0.67 0 0.34 0 0 Z " transform="translate(188,292)" style="fill: #2E2C2A;"/><path d="M0 0 C0.33 0 0.66 0 1 0 C1.05418326 2.08304538 1.09287551 4.16649768 1.125 6.25 C1.14820313 7.41015625 1.17140625 8.5703125 1.1953125 9.765625 C1.0103949 12.82786046 0.60823023 14.44202751 -1 17 C-3.21540751 12.70465955 -2.93660602 10.27812105 -1.625 5.6875 C-1.32851563 4.61886719 -1.03203125 3.55023438 -0.7265625 2.44921875 C-0.48679687 1.64097656 -0.24703125 0.83273438 0 0 Z " transform="translate(391,228)" style="fill: #EBB479;"/><path d="M0 0 C1.67542976 0.28604898 3.34385343 0.61781233 5 1 C5 2.65 5 4.3 5 6 C3.35 5.67 1.7 5.34 0 5 C-0.5625 3.0625 -0.5625 3.0625 -1 1 C-0.67 0.67 -0.34 0.34 0 0 Z " transform="translate(283,172)" style="fill: #E4E5E8;"/><path d="M0 0 C0 0.99 0 1.98 0 3 C-3 5.1875 -3 5.1875 -6 7 C-6 6.01 -6 5.02 -6 4 C-6.99 4 -7.98 4 -9 4 C-9.33 5.32 -9.66 6.64 -10 8 C-10 7.34 -10 6.68 -10 6 C-10.66 6 -11.32 6 -12 6 C-11.67 5.01 -11.34 4.02 -11 3 C-10.28972656 2.86722656 -9.57945312 2.73445312 -8.84765625 2.59765625 C-7.92855469 2.42105469 -7.00945312 2.24445313 -6.0625 2.0625 C-4.68771484 1.80146484 -4.68771484 1.80146484 -3.28515625 1.53515625 C-1.04710156 1.22285012 -1.04710156 1.22285012 0 0 Z " transform="translate(271,221)" style="fill: #2F373E;"/><path d="M0 0 C0.33 0 0.66 0 1 0 C1.02578125 0.58007812 1.0515625 1.16015625 1.078125 1.7578125 C1.55246019 8.29070164 3.27911863 12.27911863 8 17 C4.87525593 16.74664237 3.39548758 16.40912508 1.1875 14.125 C-0.58593872 9.458056 -0.23340442 4.93607135 0 0 Z " transform="translate(211,176)" style="fill: #E3D7C6;"/><path d="M0 0 C0.33 0 0.66 0 1 0 C0.88487847 1.72985242 0.75744323 3.45888751 0.625 5.1875 C0.52058594 6.63189453 0.52058594 6.63189453 0.4140625 8.10546875 C-0.00215853 11.01508938 -0.79874096 13.32890774 -2 16 C-2.33 16 -2.66 16 -3 16 C-2.52013969 10.43109483 -1.70084819 5.32932432 0 0 Z " transform="translate(349,319)" style="fill: #C47A41;"/><path d="M0 0 C0.33 0 0.66 0 1 0 C1.59572709 11.16436701 1.59572709 11.16436701 -2 16 C-4.6875 16.875 -4.6875 16.875 -7 17 C-6.21625 16.236875 -5.4325 15.47375 -4.625 14.6875 C-1.00469528 10.43133439 -0.6425777 5.38998013 0 0 Z " transform="translate(292,176)" style="fill: #DCCCB9;"/><path d="M0 0 C1.65 0.33 3.3 0.66 5 1 C5 2.32 5 3.64 5 5 C3.02 5 1.04 5 -1 5 C-0.67 3.35 -0.34 1.7 0 0 Z " transform="translate(220,172)" style="fill: #EDEEEE;"/><path d="M0 0 C0.66 0.33 1.32 0.66 2 1 C-1 4 -4 7 -7 10 C-7.33 8.68 -7.66 7.36 -8 6 C-5.36 4.02 -2.72 2.04 0 0 Z " transform="translate(369,321)" style="fill: #201F1F;"/><path d="M0 0 C1.62463842 -0.05395478 3.24978541 -0.09277195 4.875 -0.125 C5.77992188 -0.14820313 6.68484375 -0.17140625 7.6171875 -0.1953125 C10 0 10 0 12 2 C5.565 2.495 5.565 2.495 -1 3 C-0.67 2.01 -0.34 1.02 0 0 Z " transform="translate(319,278)" style="fill: #252120;"/><path d="M0 0 C0.99 0 1.98 0 3 0 C3 2.97 3 5.94 3 9 C2.34 9 1.68 9 1 9 C-0.4783226 6.04335481 -0.06032783 3.25770263 0 0 Z " transform="translate(190,147)" style="fill: #C28245;"/><path d="M0 0 C0.33 0.99 0.66 1.98 1 3 C-0.98 3.99 -2.96 4.98 -5 6 C-5 4.35 -5 2.7 -5 1 C-3 0 -3 0 0 0 Z " transform="translate(315,238)" style="fill: #B97947;"/><path d="M0 0 C0.66 0 1.32 0 2 0 C1.125 4.875 1.125 4.875 0 6 C-1.66617115 6.04063832 -3.33388095 6.042721 -5 6 C-3.38405168 3.95880212 -1.7143618 1.95927063 0 0 Z " transform="translate(292,188)" style="fill: #3C332A;"/><path d="M0 0 C0.66 0.33 1.32 0.66 2 1 C0.71451591 2.33929505 -0.57858155 3.67128643 -1.875 5 C-2.59429687 5.7425 -3.31359375 6.485 -4.0546875 7.25 C-6 9 -6 9 -8 9 C-6.4169423 4.7257442 -3.49431596 2.73468206 0 0 Z " transform="translate(181,182)" style="fill: #202938;"/><path d="M0 0 C2.97 0.495 2.97 0.495 6 1 C6 3.31 6 5.62 6 8 C5.67 6.68 5.34 5.36 5 4 C3.35 3.67 1.7 3.34 0 3 C0 2.01 0 1.02 0 0 Z " transform="translate(304,309)" style="fill: #B58B64;"/><path d="M0 0 C0.66 0 1.32 0 2 0 C2.33 0.66 2.66 1.32 3 2 C3.66 2.33 4.32 2.66 5 3 C3.68 5.31 2.36 7.62 1 10 C0.67 10 0.34 10 0 10 C0 6.7 0 3.4 0 0 Z " transform="translate(364,256)" style="fill: #D69258;"/><path d="M0 0 C0.66 0.33 1.32 0.66 2 1 C-0.125 3.5625 -0.125 3.5625 -3 6 C-6.3125 5.8125 -6.3125 5.8125 -9 5 C-6.32239719 2.32239719 -3.52050129 1.32018799 0 0 Z " transform="translate(269,252)" style="fill: #F7E9CB;"/><path d="M0 0 C-0.99 1.32 -1.98 2.64 -3 4 C-5.97 3.505 -5.97 3.505 -9 3 C-6.40821726 0.40821726 -3.54324677 -1.77162338 0 0 Z " transform="translate(282,367)" style="fill: #AF825E;"/><path d="M0 0 C0.99 0.33 1.98 0.66 3 1 C1.625 3.5 1.625 3.5 0 6 C-0.66 6 -1.32 6 -2 6 C-2 5.34 -2 4.68 -2 4 C-2.66 3.67 -3.32 3.34 -4 3 C-2.1875 1.4375 -2.1875 1.4375 0 0 Z " transform="translate(378,253)" style="fill: #F7E0BB;"/><path d="M0 0 C0.7425 0.0825 1.485 0.165 2.25 0.25 C2.58 0.91 2.91 1.57 3.25 2.25 C-3.375 4.25 -3.375 4.25 -6.75 4.25 C-3.42692308 0.31153846 -3.42692308 0.31153846 0 0 Z " transform="translate(283.75,167.75)" style="fill: #1F1F26;"/><path d="M0 0 C2.97 0.495 2.97 0.495 6 1 C6 4 6 4 5 7 C4.34 6.67 3.68 6.34 3 6 C3 4.68 3 3.36 3 2 C2.01 1.67 1.02 1.34 0 1 C0 0.67 0 0.34 0 0 Z " transform="translate(228,378)" style="fill: #2D2626;"/><path d="M0 0 C1.98 0.495 1.98 0.495 4 1 C3.34 2.65 2.68 4.3 2 6 C1.34 6 0.68 6 0 6 C-1 3 -1 3 0 0 Z " transform="translate(213,319)" style="fill: #030F24;"/><path d="M0 0 C0.99 0.33 1.98 0.66 3 1 C1.02 2.98 -0.96 4.96 -3 7 C-3.66 6.67 -4.32 6.34 -5 6 C-3.35 4.02 -1.7 2.04 0 0 Z " transform="translate(268,225)" style="fill: #EEEBDD;"/><path d="M0 0 C-0.99 0.495 -0.99 0.495 -2 1 C-2 1.66 -2 2.32 -2 3 C-4.31 3 -6.62 3 -9 3 C-7.14340032 -0.71319936 -3.69365381 -0.09982848 0 0 Z " transform="translate(214,401)" style="fill: #CF955E;"/><path d="M0 0 C4.875 1.75 4.875 1.75 6 4 C3.69 3.67 1.38 3.34 -1 3 C-0.67 2.01 -0.34 1.02 0 0 Z " transform="translate(209,247)" style="fill: #212628;"/><path d="M0 0 C1.32 1.65 2.64 3.3 4 5 C2 6 2 6 -1.125 5.0625 C-2.07375 4.711875 -3.0225 4.36125 -4 4 C-2.68 3.34 -1.36 2.68 0 2 C0 1.34 0 0.68 0 0 Z " transform="translate(171,344)" style="fill: #AE7E5A;"/><path d="M0 0 C1.485 0.99 1.485 0.99 3 2 C4.32 1.34 5.64 0.68 7 0 C5.1875 2.5 5.1875 2.5 3 5 C2.01 5 1.02 5 0 5 C0 3.35 0 1.7 0 0 Z " transform="translate(336,333)" style="fill: #DBBD95;"/><path d="M0 0 C-3.68734758 2.45823172 -6.69699971 3.01242616 -11 4 C-7.65667474 -0.27945633 -5.29105716 -0.4070044 0 0 Z " transform="translate(277,253)" style="fill: #E4B072;"/></svg>